<?xml version="1.0" standalone="no"?>
<!DOCTYPE svg PUBLIC "-//W3C//DTD SVG 20010904//EN"
 "http://www.w3.org/TR/2001/REC-SVG-20010904/DTD/svg10.dtd">
<svg version="1.0" xmlns="http://www.w3.org/2000/svg"
 width="1057.000000pt" height="1280.000000pt" viewBox="0 0 1057.000000 1280.000000"
 preserveAspectRatio="xMidYMid meet">
<metadata>
Created by potrace 1.16, written by Peter Selinger 2001-2019
</metadata>
<g transform="translate(0.000000,1280.000000) scale(0.100000,-0.100000)"
fill="#000000" stroke="none">
<path d="M5425 12630 c-38 -11 -101 -24 -140 -31 -85 -13 -240 -70 -292 -106
-21 -15 -58 -41 -83 -58 -27 -18 -82 -40 -132 -54 -49 -13 -94 -31 -104 -42
-9 -10 -25 -19 -34 -19 -10 0 -20 -6 -23 -14 -5 -12 -14 -11 -59 6 -87 34
-249 5 -398 -71 -32 -17 -83 -37 -113 -46 -54 -16 -269 -160 -422 -284 -69
-56 -214 -212 -293 -316 -26 -33 -101 -121 -167 -195 -172 -192 -333 -474
-431 -754 -29 -83 -71 -203 -94 -266 -23 -63 -56 -169 -74 -235 -19 -66 -52
-185 -75 -265 -23 -80 -55 -190 -70 -245 -73 -252 -169 -675 -181 -795 -5 -52
-25 -176 -45 -275 -115 -600 -145 -954 -105 -1280 29 -243 24 -285 -59 -463
-32 -70 -71 -158 -86 -197 -33 -83 -162 -345 -212 -430 -20 -33 -49 -82 -66
-110 -16 -27 -53 -91 -82 -141 -29 -50 -81 -131 -116 -180 -34 -49 -68 -103
-76 -121 -7 -18 -30 -58 -50 -90 -61 -94 -135 -304 -147 -418 -4 -33 -14 -94
-21 -135 -23 -118 -45 -322 -45 -413 0 -77 4 -93 45 -191 49 -116 51 -126 33
-126 -16 0 -120 -80 -188 -146 -65 -61 -311 -259 -357 -287 l-32 -19 5 -81 c3
-45 6 -89 6 -97 0 -35 29 -238 37 -265 5 -16 13 -50 17 -75 6 -41 32 -84 91
-151 l23 -25 -60 -47 c-35 -28 -60 -55 -60 -66 0 -10 -10 -31 -22 -47 -21 -26
-23 -38 -20 -116 3 -86 1 -98 -45 -253 -25 -82 -79 -186 -138 -263 -109 -141
-190 -304 -253 -502 -12 -36 -42 -121 -67 -190 -26 -69 -62 -183 -81 -255 -20
-71 -42 -145 -50 -163 -8 -19 -14 -58 -14 -87 0 -46 3 -53 25 -63 44 -20 80
-7 41 15 -24 13 60 319 201 728 52 150 98 245 159 331 24 34 51 79 60 100 9
21 33 63 53 93 104 156 164 318 185 503 10 85 20 125 34 145 30 42 129 133
145 133 7 0 52 -23 98 -51 92 -57 249 -133 374 -183 104 -42 162 -79 186 -120
10 -18 30 -39 44 -46 23 -12 25 -19 25 -82 0 -103 -19 -250 -45 -353 -42 -165
-177 -395 -289 -492 -73 -62 -202 -116 -218 -90 -5 9 -12 9 -25 1 -26 -16 -59
-1 -78 35 -15 30 -35 42 -35 21 0 -25 42 -89 62 -96 13 -4 29 -15 35 -24 16
-23 95 -50 144 -50 41 0 49 -11 49 -65 0 -61 69 -81 187 -54 40 9 61 9 114 -5
53 -13 80 -14 159 -5 177 19 206 35 255 143 39 85 122 331 131 386 10 61 18
49 37 -52 14 -78 15 -136 10 -360 -6 -259 -5 -270 17 -335 43 -130 121 -254
234 -372 207 -215 407 -251 745 -136 123 41 111 39 111 16 0 -10 7 -24 16 -32
14 -11 15 -9 9 22 -5 30 -3 35 22 46 47 20 115 32 183 33 42 0 89 9 134 25 62
22 76 23 143 15 109 -14 175 5 231 66 46 50 52 70 23 79 -23 7 -53 -4 -45 -17
10 -16 -24 -44 -58 -46 -38 -3 -96 49 -136 121 -47 82 -89 319 -117 657 -9
107 -18 205 -21 218 -6 28 9 28 71 2 26 -11 51 -18 56 -15 5 3 18 1 30 -5 82
-45 314 -78 581 -85 130 -3 280 -12 333 -20 104 -15 256 -22 274 -11 5 4 19
-2 31 -14 11 -11 28 -20 38 -20 14 0 15 2 2 10 -8 5 -10 10 -5 10 6 0 16 -5
22 -11 6 -6 26 -12 44 -14 19 -1 59 -5 89 -10 44 -5 82 -1 190 23 136 30 176
36 305 47 39 3 124 16 190 27 75 14 163 22 235 23 110 0 140 7 140 33 0 28
-28 31 -167 17 -78 -8 -175 -21 -215 -29 -40 -8 -129 -20 -198 -26 -110 -11
-199 -26 -360 -62 -59 -13 -126 -11 -214 6 -39 8 -133 17 -209 21 -76 3 -143
8 -150 10 -16 6 -246 27 -332 30 -215 9 -353 19 -375 28 -14 6 -30 9 -37 8 -6
-1 -14 3 -18 8 -3 6 -13 7 -22 4 -12 -5 -15 -2 -11 9 9 22 -31 52 -67 51 -16
-1 -59 -4 -95 -8 -59 -6 -69 -4 -103 19 -21 14 -42 26 -47 26 -5 0 -12 10 -15
23 -8 31 -21 277 -15 277 3 0 46 -9 95 -19 50 -11 135 -25 190 -31 55 -6 141
-18 190 -25 50 -8 196 -21 325 -30 129 -8 280 -23 335 -32 143 -25 482 -25
624 0 58 10 107 20 111 22 28 17 183 29 415 32 149 1 279 3 290 4 11 0 79 -2
150 -6 72 -5 162 -8 201 -8 l71 0 -4 -46 c-12 -139 -77 -453 -118 -576 -18
-55 -45 -140 -60 -190 -15 -49 -34 -110 -42 -134 -9 -24 -28 -91 -43 -150 -47
-180 -86 -322 -119 -426 -18 -55 -56 -183 -86 -285 -49 -168 -52 -185 -37
-197 10 -7 22 -11 27 -9 6 1 26 68 46 147 19 79 47 180 62 224 40 123 113 380
151 533 20 75 45 164 56 197 45 129 107 358 145 532 3 13 11 20 18 17 17 -6
52 32 38 41 -6 3 -16 3 -22 -1 -22 -13 3 61 52 154 26 51 58 121 70 155 28 80
61 125 247 337 173 198 205 226 316 282 44 22 98 51 119 65 22 14 85 42 141
63 193 73 322 131 496 224 267 143 398 207 629 305 116 50 213 91 217 91 3 0
72 33 153 74 158 79 234 124 319 189 29 22 54 38 56 36 1 -2 17 -25 34 -50 17
-26 48 -62 68 -80 21 -19 63 -58 94 -86 31 -29 71 -64 90 -78 18 -14 62 -51
96 -84 58 -56 70 -76 207 -353 80 -161 168 -331 196 -377 l51 -84 -78 -74
c-42 -40 -142 -126 -222 -190 -80 -64 -176 -142 -214 -172 -38 -31 -90 -80
-115 -110 -25 -30 -67 -78 -92 -106 -65 -70 -79 -100 -159 -350 -45 -137 -70
-197 -153 -360 -75 -147 -107 -212 -164 -335 -19 -41 -62 -130 -95 -197 -50
-102 -58 -125 -48 -142 6 -12 14 -21 18 -21 9 0 39 20 31 20 -11 0 132 322
258 580 144 295 133 268 200 465 30 88 68 185 85 215 59 106 202 252 403 413
104 84 224 182 265 219 56 49 78 64 87 56 13 -10 14 -9 17 12 3 29 26 3 74
-86 30 -55 81 -131 113 -171 33 -40 71 -91 84 -115 l25 -43 0 49 c0 44 -7 60
-67 152 -275 415 -267 402 -356 580 -98 194 -138 281 -178 383 -37 94 -61 122
-202 236 -51 40 -131 111 -179 158 -93 89 -108 120 -64 131 37 9 58 35 52 62
-4 13 -13 91 -21 174 -21 218 -51 327 -105 375 -12 11 -49 53 -82 92 -32 40
-75 80 -94 89 -47 23 -59 47 -38 79 25 38 4 177 -49 335 -49 146 -183 426
-255 532 -28 40 -85 138 -127 218 -43 80 -94 174 -115 210 -49 85 -156 299
-174 347 -7 21 -36 94 -64 163 -56 140 -104 293 -121 387 -7 35 -21 89 -32
120 -11 32 -29 132 -39 223 -11 91 -28 217 -38 280 -15 99 -17 180 -15 595 2
264 4 532 5 595 2 87 -2 141 -19 220 -45 220 -57 360 -59 665 -1 235 -5 297
-17 325 -8 19 -31 112 -51 205 -20 94 -49 204 -65 245 -38 99 -77 229 -96 320
-9 41 -22 85 -30 97 -8 12 -32 66 -54 120 -137 342 -219 458 -573 809 -227
226 -291 283 -378 341 -140 92 -366 219 -465 261 -44 19 -125 55 -180 80 -142
64 -396 159 -487 182 -96 25 -218 25 -313 0z m430 -92 c363 -127 583 -227 855
-390 211 -126 270 -176 630 -538 158 -158 280 -330 356 -500 88 -199 272 -790
323 -1040 33 -162 34 -171 32 -323 -3 -224 20 -551 55 -805 8 -57 14 -180 14
-280 0 -167 7 -371 30 -807 11 -210 59 -639 91 -810 30 -163 99 -370 199 -600
29 -66 71 -165 95 -220 54 -127 74 -168 145 -285 31 -52 78 -133 105 -180 26
-47 74 -124 106 -171 99 -148 240 -465 285 -641 18 -70 14 -142 -10 -166 -17
-18 -17 -18 -36 56 -7 29 -29 62 -63 100 -109 118 -143 171 -251 382 -35 69
-113 214 -174 323 -61 108 -120 223 -132 254 -12 32 -32 81 -45 108 -12 28
-35 97 -50 155 -15 58 -36 132 -45 165 -38 128 -90 326 -124 470 -20 83 -40
164 -45 180 -5 17 -14 59 -20 95 -6 36 -20 117 -30 180 -11 63 -25 151 -31
195 -33 248 -93 624 -124 790 -21 108 -61 386 -86 593 -54 458 -165 1089 -251
1435 -35 141 -107 359 -156 471 -100 227 -324 609 -453 772 -39 49 -98 124
-133 168 -84 107 -227 240 -372 346 -97 71 -176 116 -411 233 -159 80 -319
155 -355 167 -120 40 -351 74 -494 73 -157 -1 -214 -18 -317 -93 -65 -48 -89
-59 -88 -42 1 12 170 115 237 144 35 15 89 32 120 38 32 6 103 22 158 35 165
40 259 33 460 -37z m-390 -88 c322 -55 299 -47 676 -235 289 -145 396 -216
582 -386 193 -177 408 -475 604 -834 204 -376 265 -567 398 -1250 14 -71 34
-170 44 -220 25 -117 42 -230 91 -625 36 -287 80 -584 110 -750 52 -287 77
-433 94 -555 58 -417 78 -521 152 -810 182 -713 230 -851 389 -1140 46 -84
124 -231 172 -326 100 -197 154 -285 237 -381 72 -84 126 -207 96 -222 -10 -4
-20 -16 -23 -26 -8 -31 -169 -137 -340 -223 -127 -63 -112 -75 -235 194 -122
267 -221 622 -383 1374 -11 50 -33 143 -50 208 -36 135 -33 163 4 55 114 -324
140 -396 175 -488 49 -131 152 -368 227 -525 97 -202 173 -304 288 -391 34
-25 85 -72 113 -103 53 -58 153 -117 180 -107 26 10 14 35 -28 60 -62 36 -107
87 -185 211 -106 168 -187 354 -298 680 -25 72 -63 175 -85 229 -22 55 -40
104 -40 109 0 6 -20 60 -45 121 -50 127 -110 286 -162 431 -20 55 -47 125 -60
155 -57 127 -196 539 -227 670 -51 217 -93 494 -136 900 -12 112 -33 247 -65
420 -9 47 -33 184 -55 305 -47 265 -86 453 -140 680 -56 235 -94 410 -119 545
-57 304 -86 415 -147 564 -82 199 -262 494 -386 631 -68 75 -146 178 -211 278
-52 81 -246 276 -349 352 -199 145 -285 185 -593 271 -128 35 -133 36 -365 41
-276 6 -343 -1 -443 -51 -39 -20 -72 -34 -74 -32 -8 8 141 135 186 160 105 57
239 68 426 36z m-595 -129 c0 -7 -68 -68 -104 -93 -16 -12 12 -27 37 -20 11 3
50 20 86 37 124 60 124 60 411 60 l265 -1 135 -33 c357 -89 533 -185 773 -420
100 -97 163 -173 207 -246 27 -46 25 -45 -69 35 -199 166 -447 323 -681 431
-172 79 -442 171 -553 189 -107 18 -267 8 -387 -24 -191 -50 -212 -57 -271
-86 -32 -16 -59 -28 -59 -26 0 17 38 70 77 107 89 85 133 115 133 90z m-143
-59 c-50 -54 -137 -207 -137 -244 0 -6 -8 -20 -17 -31 -31 -34 -21 -206 17
-290 16 -37 30 -73 30 -81 0 -7 7 -27 15 -42 17 -33 19 -54 5 -54 -5 0 -13 12
-16 28 -4 15 -27 70 -52 122 -38 77 -46 105 -47 152 0 31 -3 59 -7 63 -8 9 1
66 13 80 5 5 9 32 9 60 0 101 147 295 224 295 15 0 6 -14 -37 -58z m-177 -8
c40 -16 49 -27 30 -39 -6 -4 -24 -30 -40 -58 l-29 -52 -60 -1 c-63 0 -74 -5
-347 -135 -171 -81 -331 -223 -403 -359 -33 -61 -124 -289 -168 -420 -62 -183
-101 -275 -156 -370 -35 -60 -88 -166 -166 -330 -17 -36 -46 -90 -65 -120 -19
-30 -51 -104 -71 -165 -20 -60 -56 -155 -80 -210 -48 -111 -68 -174 -91 -285
-31 -143 -35 -197 -44 -590 -9 -389 -32 -873 -49 -1000 -4 -36 -20 -103 -33
-150 -14 -47 -28 -96 -31 -110 -9 -42 -82 -239 -125 -335 -22 -49 -60 -136
-85 -192 -44 -98 -117 -239 -162 -313 -12 -19 -46 -80 -75 -135 -29 -55 -60
-111 -70 -125 -9 -14 -26 -47 -37 -75 -12 -27 -78 -165 -146 -306 -69 -141
-128 -267 -132 -280 -4 -13 -21 -51 -38 -84 -46 -92 -133 -359 -151 -465 -26
-152 -32 -487 -12 -730 9 -113 19 -211 22 -219 8 -25 17 -196 9 -189 -4 4 -8
19 -10 35 -5 40 -10 68 -28 148 -9 39 -24 113 -33 165 -9 52 -32 174 -51 270
-31 158 -34 187 -29 300 2 69 8 142 11 164 11 58 -10 37 -31 -32 -28 -89 -22
-268 15 -467 17 -88 42 -223 56 -300 22 -118 57 -253 95 -365 15 -43 37 -243
46 -415 3 -49 9 -119 14 -155 6 -36 19 -139 30 -230 22 -190 41 -290 54 -290
10 0 5 60 -18 205 -16 107 -39 312 -57 515 -6 69 -14 148 -16 175 -6 63 3 55
23 -20 8 -33 18 -64 23 -69 4 -6 8 -24 9 -40 1 -16 7 -35 13 -42 6 -7 8 -17 5
-22 -5 -9 9 -118 20 -155 3 -9 10 -15 15 -11 5 3 7 10 3 15 -9 16 -13 79 -4
74 5 -3 12 -27 15 -53 4 -26 9 -58 11 -72 2 -14 7 -54 10 -90 3 -36 12 -108
19 -160 20 -134 45 -349 45 -389 0 -19 4 -60 10 -90 16 -91 43 -350 46 -437 3
-117 -23 -318 -46 -349 -4 -5 -10 -30 -14 -55 -6 -41 -22 -87 -99 -291 -56
-148 -135 -239 -261 -299 -157 -74 -159 -74 -241 -6 l-39 33 40 21 c90 46 129
96 193 249 106 252 183 517 202 689 12 123 9 361 -5 384 -6 8 -11 27 -13 44
-2 16 -8 34 -13 41 -5 7 -7 14 -4 17 3 4 -4 25 -16 49 -12 23 -30 65 -40 93
-15 44 -39 104 -80 204 -5 12 -16 22 -24 22 -12 0 -10 -10 8 -52 13 -29 26
-65 30 -80 3 -15 12 -33 19 -40 13 -14 19 -48 7 -48 -13 0 -67 142 -100 264
-12 43 -46 137 -76 207 -30 71 -54 132 -54 136 0 3 -24 68 -54 142 -59 148
-83 228 -90 307 -2 28 -10 71 -18 95 -9 32 -13 111 -12 289 1 273 15 465 45
586 10 45 19 94 19 110 0 26 119 276 161 339 11 17 35 55 53 85 18 30 63 104
100 164 154 250 305 534 368 691 22 55 61 143 88 196 26 53 62 136 80 185 18
49 39 101 46 115 10 20 11 39 3 80 -18 100 -38 342 -44 559 -6 189 -4 233 14
365 28 197 40 264 51 300 17 51 50 215 70 345 32 204 89 485 121 600 11 41 27
98 34 125 8 28 50 199 94 380 80 330 126 485 183 625 17 41 55 140 84 219 96
256 225 476 390 661 37 41 108 127 159 190 159 196 333 363 468 448 33 20 86
55 120 77 57 37 131 73 268 131 128 54 244 68 319 38z m782 -24 c154 -18 441
-122 723 -263 306 -153 721 -476 784 -611 12 -27 39 -76 60 -110 21 -33 52
-86 68 -116 17 -30 45 -79 62 -109 98 -165 220 -461 286 -694 19 -69 40 -139
46 -154 22 -55 60 -201 98 -373 37 -164 57 -279 146 -840 20 -124 47 -279 61
-345 13 -66 33 -164 44 -218 10 -54 22 -102 25 -108 13 -20 49 -278 101 -724
39 -343 46 -387 105 -688 39 -202 46 -275 16 -165 -60 223 -130 453 -208 688
-131 397 -154 472 -214 695 -29 110 -73 270 -98 355 -53 182 -101 390 -117
510 -14 99 -24 118 -51 94 -11 -10 -19 -29 -19 -43 0 -15 -4 -21 -9 -16 -12
14 -91 203 -199 475 -55 139 -407 853 -464 941 -20 31 -79 114 -133 184 -53
70 -137 186 -187 259 -131 188 -199 277 -304 396 -215 246 -338 321 -744 451
-132 43 -138 44 -270 44 -148 0 -207 -14 -250 -60 -21 -22 -22 -31 -16 -87 8
-81 -9 -66 -33 28 -10 38 -23 79 -29 91 -22 40 -5 258 23 313 32 62 140 119
313 164 167 44 248 52 384 36z m-842 -183 c0 -19 -15 -30 -88 -65 -242 -116
-562 -332 -562 -380 0 -24 -70 -145 -174 -300 -97 -145 -117 -158 -71 -47 14
33 48 116 75 185 101 255 223 391 450 505 232 116 370 154 370 102z m-10 -111
c0 -43 0 -43 -62 -74 -78 -38 -158 -108 -239 -210 -56 -70 -174 -206 -317
-364 -129 -143 -289 -432 -425 -768 -41 -102 -114 -268 -162 -370 -48 -102
-101 -221 -117 -265 -34 -92 -88 -289 -88 -322 0 -13 -4 -23 -9 -23 -20 0 25
215 118 570 23 85 50 193 61 241 33 144 77 255 203 499 88 172 152 281 238
406 65 95 141 216 169 270 64 124 108 167 271 263 68 41 144 86 169 102 47 29
170 89 183 89 4 0 7 -20 7 -44z m-10 -106 c0 -11 20 -60 45 -109 46 -92 47
-104 9 -95 -59 15 -221 -113 -322 -256 -26 -36 -80 -108 -122 -160 -41 -52
-84 -106 -95 -121 -11 -14 -48 -63 -83 -109 -35 -46 -87 -110 -116 -144 -103
-120 -257 -349 -243 -362 2 -3 26 29 51 70 48 77 99 140 220 275 37 42 105
123 150 180 44 57 110 140 146 185 36 44 103 130 149 189 90 117 174 191 233
207 32 9 40 8 62 -13 l26 -24 -29 -40 c-16 -22 -51 -56 -77 -76 -74 -54 -407
-398 -476 -490 -18 -24 -87 -111 -153 -192 -252 -311 -293 -367 -358 -492 -70
-134 -174 -458 -192 -598 -4 -27 -24 -138 -46 -245 -21 -108 -45 -261 -54
-342 -25 -257 -18 -676 19 -1010 13 -116 22 -223 41 -508 2 -25 4 -46 5 -47 2
-2 4 -15 5 -30 1 -16 5 -41 8 -58 52 -297 63 -396 72 -599 3 -65 9 -124 12
-129 4 -6 10 -92 14 -191 7 -154 5 -206 -12 -347 -11 -92 -19 -184 -17 -205 3
-38 4 -39 15 -14 34 70 62 506 43 663 -5 45 -17 161 -25 257 -16 193 -34 338
-66 529 -12 69 -23 149 -25 176 -2 28 -9 93 -14 145 -5 52 -12 145 -15 205 -3
61 -12 166 -20 235 -39 336 -38 858 1 1061 9 46 29 149 44 229 16 80 32 168
35 195 12 88 73 321 116 437 75 206 128 291 376 599 98 122 192 240 209 263
48 63 195 217 355 370 79 76 163 158 186 182 l41 44 77 -116 c42 -64 79 -122
81 -129 13 -32 -229 -306 -350 -398 -222 -168 -260 -195 -330 -231 -109 -58
-176 -126 -219 -222 -19 -44 -54 -115 -78 -159 -73 -131 -145 -285 -174 -370
-16 -44 -44 -116 -63 -160 -60 -139 -113 -278 -109 -288 2 -6 18 28 36 74 121
305 221 517 345 733 52 90 106 186 119 212 34 66 76 104 177 160 222 122 437
307 610 527 33 43 65 75 70 72 28 -17 11 -169 -30 -261 -68 -155 -241 -348
-490 -548 -91 -73 -194 -159 -230 -192 -36 -32 -101 -88 -144 -124 -43 -35
-94 -87 -112 -115 -19 -27 -54 -77 -79 -110 -130 -174 -195 -283 -195 -329 0
-22 -8 -65 -69 -346 -17 -79 -34 -193 -75 -488 -3 -18 -1 -30 3 -28 4 3 14 47
21 98 7 51 16 102 21 113 9 20 9 -1 -11 -290 -4 -71 -6 -197 -4 -280 19 -636
22 -702 42 -800 11 -55 30 -156 42 -225 12 -69 24 -132 27 -140 3 -8 7 -25 9
-37 2 -13 6 -33 8 -45 2 -13 6 -30 9 -38 3 -8 20 -69 36 -135 49 -191 70 -269
80 -286 6 -11 6 -20 -1 -27 -9 -9 -7 -17 6 -31 22 -24 18 -146 -8 -286 -8 -44
-20 -177 -26 -295 -26 -538 -35 -594 -151 -955 -78 -243 -107 -311 -333 -761
-263 -525 -322 -661 -361 -834 -10 -41 -24 -95 -31 -120 -27 -94 -64 -259 -81
-360 -25 -161 -22 -502 6 -685 12 -77 24 -154 27 -172 2 -18 11 -65 20 -105 9
-40 20 -91 24 -113 11 -61 67 -275 83 -320 109 -300 196 -464 295 -557 48 -45
74 -104 76 -172 1 -29 -2 -31 -84 -58 -152 -51 -284 -73 -366 -61 -206 30
-422 227 -525 480 -50 123 -60 191 -57 393 l3 165 33 -100 c38 -114 91 -230
120 -261 11 -11 23 -31 27 -43 14 -44 189 -296 239 -346 61 -58 183 -136 253
-160 85 -30 275 -18 297 18 9 15 6 23 -20 45 -18 15 -56 48 -85 73 -62 53
-189 236 -243 351 -20 42 -36 79 -36 82 0 3 -11 30 -25 60 -14 30 -25 57 -25
60 0 3 -9 31 -21 62 -15 38 -24 53 -31 46 -11 -11 16 -102 46 -162 8 -14 17
-38 20 -55 9 -35 99 -218 142 -286 72 -116 105 -157 162 -204 68 -55 67 -62
-17 -72 -110 -13 -304 69 -385 162 -64 75 -107 133 -130 178 -11 20 -23 37
-27 37 -5 0 -20 24 -35 53 -14 28 -37 67 -51 85 -13 17 -21 32 -18 32 4 0 -2
12 -13 28 -27 39 -112 222 -112 242 0 6 -6 24 -14 38 -38 71 -46 123 -46 316
-1 105 -5 223 -10 261 -17 123 -25 595 -11 666 26 132 177 635 193 646 7 4 9
-3 5 -18 -23 -95 -14 -463 13 -533 19 -51 34 -17 20 46 -25 113 -19 637 8 671
5 6 20 44 32 82 12 39 26 75 30 80 4 6 13 26 18 45 11 37 69 202 128 365 19
55 51 145 70 200 112 334 190 540 258 687 14 31 26 59 26 62 0 3 33 79 74 168
191 422 254 582 297 752 22 87 22 90 5 210 -9 66 -21 162 -26 211 -5 50 -17
137 -26 195 -9 58 -16 116 -15 130 1 14 -5 59 -13 100 -69 355 -75 412 -108
955 -21 347 -14 1023 13 1195 10 60 38 285 59 460 19 162 42 243 102 365 21
44 32 72 24 61 -26 -32 -94 -169 -104 -211 -24 -93 -68 -342 -77 -435 -2 -30
-9 -86 -15 -125 -44 -310 -57 -846 -32 -1347 6 -120 13 -221 16 -226 3 -5 8
-63 11 -128 8 -144 36 -354 75 -559 6 -27 12 -72 15 -100 2 -27 9 -82 15 -122
5 -39 7 -87 5 -105 -4 -25 -3 -28 4 -13 8 19 9 19 14 -5 10 -42 30 -301 29
-370 -1 -146 -49 -320 -158 -572 -35 -81 -64 -150 -64 -153 0 -3 -32 -76 -71
-163 -39 -86 -86 -191 -104 -232 -33 -73 -107 -258 -140 -350 -46 -127 -89
-253 -110 -320 -13 -41 -41 -124 -63 -185 -94 -262 -145 -404 -168 -463 -13
-34 -24 -71 -24 -82 0 -10 -3 -21 -7 -23 -14 -9 16 338 38 453 42 217 93 421
141 560 16 47 35 109 44 139 20 74 58 170 109 276 58 119 97 207 101 223 5 25
78 173 90 183 7 5 15 27 19 48 3 21 17 49 29 62 32 35 50 69 36 69 -7 0 -3 15
9 34 22 35 27 56 12 56 -5 0 -25 -35 -46 -77 -21 -43 -68 -141 -106 -218 -68
-141 -159 -349 -159 -364 0 -5 -18 -48 -41 -96 -52 -113 -78 -180 -88 -230 -5
-22 -25 -85 -44 -140 -57 -165 -58 -169 -112 -415 -24 -107 -52 -337 -61 -495
-9 -157 -22 -218 -77 -370 -31 -86 -97 -311 -97 -333 -1 -10 -8 -28 -16 -42
-14 -24 -15 -24 -11 -2 3 12 1 22 -4 22 -5 0 -9 -27 -9 -60 0 -33 -3 -60 -7
-60 -5 0 -8 24 -8 53 0 127 -31 294 -90 487 -9 30 -20 69 -25 85 -5 17 -20 62
-34 100 -16 44 -27 101 -30 155 -3 47 -13 132 -22 190 -9 58 -18 116 -20 130
-5 30 -5 311 0 396 7 127 41 324 66 379 5 11 16 45 26 75 9 30 25 72 36 93 32
65 41 92 25 78 -19 -15 -84 -172 -107 -257 l-18 -69 4 90 c5 87 19 191 50 379
31 187 110 381 290 712 128 237 211 427 284 649 29 88 58 179 66 202 18 56 94
354 94 367 -1 26 -30 -46 -44 -110 -44 -193 -143 -502 -221 -689 -82 -193
-109 -249 -189 -390 -181 -320 -301 -626 -326 -827 -6 -51 -15 -109 -20 -128
-5 -19 -14 -111 -20 -205 -6 -93 -15 -204 -20 -245 -14 -107 -21 -258 -23
-470 -1 -101 -4 -171 -8 -155 -4 17 -18 62 -32 100 -22 62 -41 245 -39 375 0
8 -7 80 -16 160 -9 87 -15 233 -15 365 0 473 43 644 296 1165 46 96 106 222
132 280 55 121 151 307 240 465 150 264 270 530 352 775 96 289 109 429 133
1370 11 439 39 608 138 840 22 52 56 143 75 202 20 58 50 132 68 163 32 57 50
68 31 18 -6 -15 -23 -80 -37 -143 -15 -63 -36 -146 -48 -185 -26 -90 -54 -210
-73 -305 -14 -71 -23 -135 -44 -310 -5 -41 -16 -97 -25 -125 -44 -141 -55
-247 -55 -575 0 -239 -4 -338 -16 -410 -8 -52 -17 -111 -20 -130 -2 -19 -11
-71 -19 -115 -7 -44 -16 -98 -19 -120 l-5 -40 14 30 c8 17 14 41 14 55 1 14 7
45 15 70 8 25 19 61 24 80 9 31 10 27 11 -40 1 -41 6 -140 11 -220 21 -290 15
-514 -19 -710 -16 -96 -35 -190 -41 -207 -7 -18 -10 -38 -7 -45 2 -7 12 14 21
47 9 33 23 76 31 95 15 35 39 171 55 305 10 91 4 467 -11 620 -12 130 -7 415
11 555 5 47 12 155 15 240 3 85 9 198 14 250 6 52 15 145 21 205 6 66 22 146
39 200 16 50 32 106 36 125 39 204 77 312 193 550 44 91 117 257 162 370 87
217 116 279 213 455 106 193 150 252 387 515 47 52 111 127 142 165 72 89 141
156 198 194 54 35 70 38 70 11z m670 -148 c47 -17 113 -37 147 -46 241 -60
458 -204 651 -429 78 -92 134 -166 354 -468 35 -48 102 -138 149 -200 126
-167 132 -179 369 -664 84 -170 172 -362 197 -425 109 -279 138 -349 174 -424
67 -136 79 -189 79 -350 1 -136 5 -182 30 -346 6 -41 11 -126 11 -187 0 -62 3
-113 8 -113 5 0 7 -8 5 -17 -5 -23 -15 -588 -17 -958 -1 -295 10 -439 58 -764
26 -173 127 -532 191 -676 7 -16 34 -77 59 -135 142 -323 401 -761 529 -893
52 -54 170 -121 321 -182 92 -38 92 -38 46 -68 -33 -22 -52 -27 -101 -27 -84
0 -127 30 -298 206 -139 144 -210 239 -376 504 -93 148 -296 591 -397 866
-121 331 -149 446 -169 704 -6 74 -15 189 -21 255 -5 66 -8 255 -7 420 5 602
0 701 -52 925 -16 69 -36 179 -44 245 -9 66 -21 152 -26 190 -6 39 -17 151
-25 250 -26 298 -42 378 -135 661 -66 201 -210 555 -366 899 -81 180 -348 445
-624 619 -180 115 -378 222 -485 264 -27 11 -81 34 -118 51 -153 70 -192 84
-244 84 -71 0 -133 -41 -179 -119 -10 -18 -12 -18 -37 -1 -37 24 -47 47 -72
163 -26 119 -19 157 31 186 79 46 251 46 384 0z m-34 -296 c442 -177 734 -343
1014 -575 179 -148 281 -277 349 -441 26 -62 69 -160 131 -300 181 -405 297
-781 329 -1070 21 -177 22 -190 18 -190 -2 0 -17 30 -32 68 -33 78 -44 92 -74
95 -13 1 -20 6 -16 15 2 7 -32 126 -76 265 -129 400 -324 781 -499 971 -36 39
-90 104 -119 144 -30 39 -58 72 -62 72 -6 0 -72 85 -160 205 -94 130 -122 152
-233 186 -56 17 -155 51 -221 76 -111 43 -182 68 -310 110 -27 9 -68 27 -91
39 -55 32 -164 132 -164 151 0 8 -10 23 -22 33 -23 18 -23 19 -5 52 61 114
128 140 243 94z m1864 -153 c81 -115 214 -353 266 -477 38 -92 79 -225 109
-361 13 -58 -13 -11 -35 64 -73 249 -174 458 -392 819 -37 61 -3 31 52 -45z
m-1969 -201 c24 -21 262 -108 568 -208 74 -24 152 -55 173 -69 36 -24 222
-245 213 -253 -2 -3 -32 20 -65 51 -33 31 -99 83 -146 116 -92 64 -75 58 -578
218 -110 35 -186 64 -198 77 -19 20 -108 180 -108 193 0 4 26 -17 58 -48 31
-30 69 -65 83 -77z m-111 -20 c39 -84 63 -110 114 -122 57 -14 313 -93 478
-147 155 -50 239 -103 429 -268 305 -265 406 -403 492 -670 36 -112 67 -227
88 -325 7 -30 18 -76 25 -102 14 -52 8 -58 -31 -32 -18 12 -29 13 -38 6 -8 -7
-17 -7 -29 2 -25 18 -142 4 -213 -26 -33 -14 -148 -64 -255 -111 -107 -46
-224 -92 -260 -101 -113 -28 -163 -51 -197 -93 -22 -26 -29 -43 -23 -53 7 -11
12 -11 23 -2 8 7 22 9 31 6 10 -4 25 1 35 10 12 11 43 19 92 22 41 3 126 16
189 29 161 33 282 44 525 48 l211 4 27 -136 c41 -210 76 -463 102 -754 21
-236 19 -364 -6 -462 -12 -44 -31 -125 -44 -180 -41 -175 -75 -308 -99 -385
-27 -83 -96 -375 -96 -406 -1 -53 -300 -196 -565 -268 -224 -62 -299 -89 -373
-139 -121 -81 -217 -107 -392 -106 -151 0 -183 8 -257 61 -26 20 -95 59 -153
88 -58 29 -150 80 -204 112 -55 33 -140 82 -190 108 -333 173 -410 228 -565
401 -67 75 -110 134 -143 195 -55 105 -125 326 -139 439 -6 44 -14 112 -19
150 -13 97 -12 673 1 880 5 94 12 202 14 240 2 39 8 81 13 95 5 14 15 63 21
110 20 137 32 165 59 138 9 -9 16 -7 32 7 14 13 23 15 33 7 23 -20 182 -60
282 -72 55 -6 134 -18 175 -26 41 -8 89 -14 106 -14 17 0 69 -20 117 -44 57
-29 95 -42 111 -39 16 3 35 -2 52 -16 15 -12 32 -21 39 -21 6 0 22 -12 34 -26
21 -24 24 -25 39 -11 14 14 14 18 0 39 -28 41 -74 88 -87 88 -7 0 -31 14 -52
31 -21 17 -43 28 -49 24 -5 -3 -49 21 -97 53 -49 32 -128 80 -178 107 -123 67
-193 112 -208 135 -6 11 -17 20 -24 20 -7 0 -13 7 -13 16 0 11 -6 15 -18 12
-10 -3 -23 1 -30 9 -23 24 -41 13 -152 -93 -111 -108 -131 -116 -84 -34 15 25
49 86 76 135 68 120 120 188 252 325 61 63 153 161 205 218 52 57 164 163 249
235 113 96 176 159 233 232 123 156 219 364 219 475 0 72 17 64 60 -28z m-190
-254 c-57 -110 -202 -274 -368 -416 -69 -59 -148 -136 -177 -172 -29 -36 -122
-137 -207 -225 -187 -192 -312 -354 -390 -505 -16 -30 -27 -46 -24 -35 3 11
10 47 16 80 14 82 63 180 155 310 43 61 96 136 117 167 43 63 259 257 498 447
185 147 311 269 356 343 41 67 58 71 24 6z m1829 -1073 c44 -91 101 -225 127
-298 26 -72 50 -136 55 -141 12 -13 12 -46 0 -46 -5 0 -25 20 -45 45 -52 63
-66 76 -77 70 -4 -3 -11 4 -14 17 -3 13 -21 91 -40 173 -18 83 -48 192 -64
243 -50 152 -41 142 58 -63z m-2699 -165 c0 -5 -9 -10 -19 -10 -11 0 -23 -4
-26 -10 -3 -5 -12 -10 -18 -10 -17 1 32 40 49 40 8 0 14 -4 14 -10z m-90 -60
c-14 -10 -27 -17 -29 -14 -6 5 31 33 44 33 6 1 -1 -8 -15 -19z m80 5 c-7 -8
-28 -24 -46 -36 -19 -11 -32 -24 -30 -28 3 -4 -4 -7 -15 -7 -31 0 -22 13 34
50 56 37 77 45 57 21z m-15 -52 c-5 -15 -4 -16 6 -5 7 6 17 12 22 12 4 0 5 -6
1 -12 -5 -9 -2 -8 9 1 15 12 20 11 40 -8 13 -11 26 -21 30 -21 4 0 15 -8 25
-17 10 -10 27 -23 38 -29 40 -24 -12 -35 -103 -23 -82 11 -141 29 -147 45 -3
9 0 11 12 7 9 -3 14 -2 9 2 -4 5 5 15 20 22 16 7 20 11 10 8 -10 -3 -15 -1
-12 5 3 6 13 10 21 10 8 0 14 5 14 10 0 6 3 10 6 10 3 0 3 -8 -1 -17z m-270
-42 c3 -5 1 -12 -5 -16 -5 -3 -10 1 -10 9 0 18 6 21 15 7z m415 -6 c0 -3 -2
-5 -5 -5 -3 0 -5 2 -5 5 0 3 2 5 5 5 3 0 5 -2 5 -5z m2588 -119 c17 -9 32 -20
33 -24 0 -4 2 -14 4 -24 4 -23 -4 -24 -244 -27 l-214 -3 26 27 c45 49 145 76
262 72 68 -3 110 -9 133 -21z m-3553 -185 c-4 -31 -10 -50 -12 -43 -3 8 -2 44
3 80 4 37 10 56 12 43 2 -14 1 -50 -3 -80z m3798 -53 c21 -68 62 -224 92 -348
60 -242 64 -255 69 -249 5 5 -59 329 -74 375 -7 19 -10 38 -7 41 3 3 2 15 -2
27 -33 88 -15 103 22 19 66 -151 84 -354 65 -738 -27 -552 -35 -642 -98 -1115
-64 -486 -75 -1058 -25 -1305 33 -160 112 -354 228 -560 198 -351 290 -493
405 -623 72 -82 107 -104 242 -160 53 -21 147 -72 210 -112 139 -90 192 -101
241 -54 16 15 29 34 29 41 0 13 108 10 150 -4 14 -4 -55 -34 -160 -69 -144
-48 -579 125 -821 327 -94 78 -221 151 -254 145 -26 -5 -40 2 -93 44 -34 28
-62 57 -62 65 0 7 -19 26 -41 42 -25 16 -54 50 -72 81 -37 67 -128 370 -178
592 -28 127 -38 404 -19 542 5 40 17 152 25 248 51 572 60 670 75 795 42 365
58 875 32 1090 -6 55 -14 132 -17 170 -24 284 -87 688 -116 746 -4 8 -5 20 -1
26 6 8 81 36 113 42 3 1 22 -54 42 -121z m854 -10 c-3 -8 -6 -5 -6 6 -1 11 2
17 5 13 3 -3 4 -12 1 -19z m-4670 -40 c-3 -8 -6 -5 -6 6 -1 11 2 17 5 13 3 -3
4 -12 1 -19z m4328 -65 l4 -38 -14 30 c-17 37 -21 91 -4 63 5 -10 12 -35 14
-55z m355 52 c0 -3 -2 -5 -5 -5 -3 0 -5 2 -5 5 0 3 2 5 5 5 3 0 5 -2 5 -5z
m-4683 -177 c-2 -29 -3 -6 -3 52 0 58 1 81 3 53 2 -29 2 -77 0 -105z m4690
135 c-4 -3 -7 0 -7 7 0 7 3 10 7 7 3 -4 3 -10 0 -14z m10 -85 c-3 -7 -5 -2 -5
12 0 14 2 19 5 13 2 -7 2 -19 0 -25z m494 -122 c-8 -60 -9 -59 -9 39 0 81 2
93 9 61 5 -22 6 -63 0 -100z m-437 -136 c4 -20 3 -30 -2 -25 -11 12 -52 215
-51 247 1 20 34 -119 53 -222z m-374 11 c69 -240 101 -497 140 -1121 15 -244
41 -477 55 -499 3 -6 10 -50 16 -98 5 -48 15 -92 21 -98 7 -7 9 7 4 50 -4 33
-12 98 -17 145 -5 47 -11 99 -13 115 -2 17 -13 183 -25 370 -12 187 -30 429
-41 537 -23 231 -22 211 -10 203 6 -3 10 -17 10 -30 0 -62 107 -419 285 -950
114 -342 284 -972 320 -1190 4 -22 27 -128 52 -235 25 -107 51 -222 59 -255
104 -462 206 -766 331 -989 38 -66 38 -86 0 -31 -16 23 -54 53 -103 81 -99 56
-131 87 -206 199 -135 201 -244 478 -403 1025 -29 102 -62 208 -73 235 -10 28
-22 67 -26 87 -7 36 -21 56 -33 45 -3 -3 7 -47 21 -97 14 -50 26 -97 26 -104
0 -24 157 -541 232 -761 57 -170 141 -336 241 -483 62 -90 102 -126 198 -181
47 -28 86 -58 107 -86 41 -56 40 -61 -5 -37 -21 11 -96 48 -167 83 -150 72
-190 105 -278 231 -153 218 -380 626 -451 806 -165 426 -211 618 -267 1112
-20 176 -21 216 -15 840 l7 655 -25 215 c-14 118 -28 260 -31 315 -6 97 -5 99
10 66 9 -19 33 -96 54 -170z m-4383 72 c-4 -3 -7 0 -7 7 0 7 3 10 7 7 3 -4 3
-10 0 -14z m4034 -400 c16 -366 14 -759 -4 -943 -33 -330 -11 -636 77 -1085
60 -302 73 -340 219 -614 52 -97 135 -277 186 -401 51 -124 117 -274 146 -335
71 -147 219 -368 289 -432 56 -52 211 -153 233 -153 36 0 -9 -58 -51 -65 -39
-8 -59 1 -179 79 -95 62 -198 115 -277 142 -116 40 -245 203 -482 614 -286
493 -326 660 -315 1290 6 324 17 454 73 885 25 194 44 433 54 690 5 132 10
264 11 293 2 47 18 76 20 35z m74 -260 c14 -107 16 -202 13 -578 -5 -713 26
-1030 132 -1340 99 -289 171 -462 354 -848 55 -116 217 -380 324 -527 62 -86
296 -327 360 -372 24 -16 41 -32 39 -35 -13 -12 -140 33 -211 75 -120 72 -194
146 -289 290 -105 159 -172 289 -257 507 -61 153 -119 281 -219 475 -130 254
-145 295 -196 545 -98 473 -120 760 -90 1170 11 162 15 289 11 390 -16 388
-16 463 -1 418 7 -24 21 -100 30 -170z m-353 -493 c-20 -226 -33 -383 -42
-535 -6 -82 -14 -186 -20 -230 -10 -82 -18 -186 -25 -310 -4 -85 -21 -247 -40
-410 -8 -66 -15 -156 -15 -200 0 -91 25 -311 40 -350 6 -15 10 -36 10 -48 0
-12 18 -80 40 -152 83 -266 85 -272 45 -235 -68 63 -156 251 -206 435 -55 202
-109 524 -109 649 0 164 92 662 189 1026 57 213 119 450 127 490 14 66 17 0 6
-130z m1202 -235 c26 -108 137 -430 199 -575 22 -52 52 -132 68 -178 15 -45
41 -117 58 -160 16 -42 59 -151 94 -242 101 -259 149 -390 168 -455 9 -33 28
-89 42 -125 13 -36 48 -126 76 -200 65 -169 102 -246 161 -335 63 -96 67 -103
39 -79 -13 12 -41 32 -62 46 -136 91 -358 542 -587 1193 -15 44 -42 116 -59
160 -55 140 -132 473 -202 870 -27 156 -25 201 5 80z m-4384 -25 c6 -22 14
-40 18 -40 5 0 22 -30 40 -67 30 -66 45 -169 43 -293 -1 -20 3 -57 8 -83 13
-71 -3 -56 -22 21 -40 161 -106 440 -111 470 -8 46 11 40 24 -8z m229 -313
c57 -61 334 -257 364 -257 3 0 46 -25 97 -55 51 -30 109 -60 127 -66 29 -9 34
-15 28 -33 -3 -11 -10 -118 -16 -236 -15 -348 -37 -486 -120 -770 -17 -58 -40
-136 -52 -175 -45 -153 -182 -550 -227 -655 -17 -41 -40 -103 -50 -137 -10
-34 -30 -84 -44 -110 -14 -26 -36 -73 -50 -103 -78 -174 -97 -213 -116 -240
-11 -16 -23 -43 -25 -59 -2 -16 -8 -37 -13 -48 -24 -43 -81 -235 -86 -289 -4
-33 -13 -84 -21 -114 -7 -30 -26 -111 -41 -180 -15 -69 -42 -192 -60 -275 -79
-352 -154 -1018 -154 -1365 0 -424 56 -649 190 -773 34 -32 75 -63 89 -68 32
-13 21 -21 -63 -43 -76 -19 -97 -10 -61 27 33 32 27 43 -28 52 -23 4 -54 14
-68 23 -30 17 -81 98 -99 157 -7 22 -15 45 -19 50 -3 6 -6 15 -6 20 0 6 -6 35
-12 65 -12 59 -42 307 -46 380 -2 35 -5 41 -12 26 -5 -12 -3 -74 5 -160 7 -78
15 -166 17 -196 1 -30 7 -64 12 -75 5 -11 14 -47 21 -80 24 -117 91 -218 159
-240 23 -7 27 -25 10 -42 -13 -13 -64 14 -107 56 -15 15 -36 33 -47 41 -49 35
-87 114 -105 219 -5 31 -19 106 -30 166 -11 61 -23 133 -25 160 -14 171 -15
222 -4 297 20 141 87 499 109 578 11 41 23 91 25 110 l5 35 -19 -41 c-10 -23
-21 -57 -24 -76 -2 -20 -12 -55 -21 -79 -9 -24 -22 -80 -30 -124 -8 -44 -22
-118 -31 -165 -20 -102 -22 -116 -24 -157 0 -18 -6 -33 -12 -33 -20 0 -5 560
19 715 27 173 104 518 132 595 5 14 12 39 15 55 10 59 184 545 235 660 13 28
40 93 60 145 21 52 61 151 89 220 84 202 146 375 195 540 25 85 62 207 82 270
105 337 120 416 110 604 -12 223 -57 397 -155 592 -28 56 -57 128 -65 160 -19
79 -67 257 -71 265 -7 11 -44 245 -45 289 -3 75 -1 77 33 35 18 -22 52 -61 76
-88z m2667 -274 c-2 -10 -8 -34 -11 -53 -4 -19 -18 -60 -30 -90 -24 -57 -70
-402 -63 -476 1 -18 -1 -36 -5 -40 -4 -4 -7 -17 -7 -28 1 -17 5 -14 19 13 l18
34 6 -54 c23 -196 78 -465 121 -584 13 -38 34 -97 46 -130 32 -90 85 -178 144
-242 29 -32 75 -92 102 -133 26 -41 71 -100 100 -130 28 -30 61 -73 71 -95 36
-72 50 -100 61 -125 10 -24 11 -24 11 -2 1 34 17 27 60 -30 61 -83 131 -139
272 -221 269 -155 371 -177 698 -146 147 13 161 16 161 34 0 8 6 15 13 15 6 1
43 16 82 35 38 18 71 32 73 30 4 -3 -78 -81 -153 -145 -61 -52 -138 -90 -185
-90 -19 0 -73 7 -120 15 -147 25 -290 38 -425 39 -146 1 -205 20 -247 77 -12
16 -27 29 -32 29 -15 0 -54 64 -126 208 -34 68 -63 122 -66 119 -12 -12 73
-186 154 -316 88 -140 93 -142 347 -152 105 -5 233 -15 285 -24 242 -39 242
-39 304 -21 64 19 134 75 311 246 116 112 138 127 190 132 36 3 41 0 66 -37
15 -22 33 -40 41 -40 23 0 20 40 -7 79 -14 20 -23 41 -20 46 3 4 38 20 79 35
41 15 83 37 94 50 11 13 51 41 89 63 38 23 92 61 120 86 60 54 77 56 152 15
86 -48 123 -103 200 -302 79 -200 90 -247 61 -254 -12 -3 -20 -14 -20 -26 0
-37 -41 -106 -87 -147 -73 -64 -190 -138 -379 -241 -29 -15 -61 -33 -71 -38
-10 -6 -56 -28 -103 -49 -47 -22 -101 -46 -120 -55 -19 -9 -89 -37 -154 -62
-66 -25 -176 -73 -245 -107 -69 -33 -144 -69 -166 -79 -22 -10 -47 -23 -55
-28 -116 -74 -580 -287 -580 -267 0 2 48 34 108 72 59 37 139 89 177 116 39
27 94 63 122 81 29 18 117 71 195 119 134 82 309 168 458 225 35 13 82 33 105
43 22 10 72 29 110 43 81 29 285 117 365 157 58 30 187 137 206 172 6 12 10
28 8 37 -2 9 -8 93 -14 186 -7 131 -15 184 -32 233 -35 101 -108 172 -175 172
-69 -1 -61 -33 8 -35 42 -1 96 -41 119 -89 43 -86 49 -120 51 -281 2 -203 6
-184 -42 -243 -71 -87 -129 -121 -419 -247 -41 -18 -91 -38 -110 -45 -19 -7
-63 -26 -97 -42 -34 -15 -66 -28 -70 -28 -8 0 -37 -12 -243 -98 -67 -28 -160
-82 -405 -231 -38 -24 -133 -85 -210 -136 -77 -51 -156 -100 -175 -110 -19 -9
-60 -36 -90 -59 -30 -22 -102 -65 -160 -94 -58 -29 -143 -73 -190 -97 -84 -42
-124 -76 -171 -145 -13 -19 -28 -39 -34 -45 -7 -5 -29 -35 -50 -65 -21 -30
-63 -83 -93 -118 -31 -35 -56 -71 -57 -80 0 -10 -4 -22 -7 -27 -3 -6 -13 -37
-21 -70 -9 -33 -29 -89 -46 -125 l-31 -65 6 70 c3 39 13 80 21 93 11 18 12 27
3 37 -13 16 -9 58 26 230 13 66 32 181 43 255 18 127 62 314 82 351 11 21 65
236 79 316 14 79 66 254 93 316 20 44 25 47 58 47 36 0 84 22 259 118 41 23
85 42 98 42 17 0 22 6 22 26 0 25 -2 26 -37 21 -44 -7 -32 -17 -287 238 -93
94 -166 163 -161 155 8 -13 6 -13 -7 -2 -9 8 -15 19 -12 26 3 7 -4 21 -16 31
-11 10 -20 15 -20 10 0 -4 -7 -2 -15 5 -18 15 -20 34 -2 24 7 -4 9 -3 4 2 -5
5 -14 9 -20 9 -7 0 -11 8 -11 17 1 10 -3 16 -9 15 -19 -4 -127 159 -193 293
-128 257 -144 295 -173 405 -20 73 -30 99 -30 76 -1 -18 6 -60 15 -93 8 -33
13 -67 10 -75 -3 -8 -2 -12 2 -9 8 5 62 -103 128 -254 103 -235 269 -455 558
-739 80 -79 146 -145 146 -148 0 -24 -277 60 -390 118 -152 78 -182 113 -308
364 -45 88 -81 158 -82 155 -1 -23 62 -185 110 -280 91 -182 172 -246 428
-337 70 -24 152 -48 182 -51 l55 -7 -95 -52 c-121 -66 -170 -80 -228 -64 -229
63 -530 666 -582 1166 -5 50 -13 126 -18 170 -6 44 -10 90 -10 103 -3 445 -1
567 8 576 7 7 10 -33 10 -127 0 -75 3 -137 8 -137 4 0 6 60 6 133 -2 170 -1
167 -20 167 -10 0 -14 6 -11 15 4 8 2 17 -3 20 -26 16 -35 -665 -11 -845 49
-364 62 -416 176 -730 22 -58 118 -240 165 -310 69 -102 167 -198 221 -217 54
-19 55 -22 36 -61 -16 -31 -61 -201 -111 -417 -20 -82 -48 -186 -65 -230 -16
-44 -38 -138 -50 -210 -49 -299 -63 -384 -77 -458 -7 -42 -14 -93 -14 -112 l0
-34 -232 2 c-456 3 -776 -11 -873 -39 -82 -24 -322 -54 -426 -54 -84 0 -315
21 -389 35 -14 3 -126 12 -250 20 -356 24 -590 60 -767 117 l-63 21 0 86 c1
240 23 516 60 751 31 196 61 464 67 599 l6 154 94 206 c51 113 129 272 173
352 83 153 101 193 155 349 49 143 116 298 201 465 l77 150 4 245 c6 362 6
415 -2 532 -8 116 0 218 17 218 6 0 39 -17 72 -39 34 -21 100 -58 146 -81 47
-23 132 -72 190 -109 l104 -66 101 -3 c56 -2 150 3 211 12 106 14 116 18 242
86 120 65 426 180 479 180 8 0 72 23 142 50 70 28 131 50 136 50 5 0 16 7 25
15 23 21 122 75 138 75 8 0 11 -7 8 -17z m-2685 -332 c12 -41 23 -90 25 -110
11 -100 34 -199 82 -361 28 -96 37 -308 15 -365 -6 -16 -26 -77 -43 -135 -18
-58 -37 -116 -42 -130 -5 -14 -25 -72 -45 -130 -19 -58 -38 -114 -42 -125 -5
-11 -27 -69 -49 -130 -22 -60 -75 -193 -117 -295 -75 -182 -145 -351 -230
-560 -24 -58 -61 -142 -84 -186 -23 -45 -41 -86 -41 -92 0 -6 -16 -41 -35 -79
-19 -37 -35 -73 -35 -80 0 -6 -17 -49 -38 -95 -22 -46 -45 -101 -52 -123 -7
-22 -30 -76 -51 -120 -34 -71 -50 -119 -100 -310 -24 -93 -24 -390 1 -555 30
-203 40 -283 46 -370 6 -83 59 -425 75 -480 5 -19 16 -69 25 -110 8 -41 23
-102 34 -135 10 -33 22 -76 25 -95 l7 -35 -27 35 c-60 78 -189 379 -225 525
-12 50 -27 101 -32 114 -5 13 -13 49 -18 80 -4 31 -13 75 -19 99 -6 23 -23
117 -37 210 -62 403 -44 758 56 1102 11 36 22 79 26 95 36 166 167 488 305
750 403 765 518 1121 539 1665 12 297 31 513 56 620 8 31 12 23 45 -89z m83
-86 c4 -14 17 -49 30 -78 35 -77 53 -134 71 -228 9 -46 19 -100 24 -119 18
-85 1 -391 -28 -479 -20 -61 -48 -153 -137 -446 -88 -292 -260 -757 -385
-1040 -41 -94 -185 -508 -227 -655 -32 -110 -120 -498 -127 -555 -37 -324 -37
-331 -30 -550 13 -407 15 -599 6 -590 -13 15 -59 310 -81 520 -11 105 -29 260
-40 345 -27 209 -26 409 0 543 27 133 37 162 138 412 47 116 93 232 103 258
10 27 22 54 27 60 5 7 15 28 22 47 7 19 34 82 60 140 43 96 75 171 233 545 84
200 182 442 215 535 17 47 63 173 102 280 155 421 155 425 72 760 -68 272 -81
337 -65 327 6 -4 14 -18 17 -32z m563 -287 c-3 -7 -5 -2 -5 12 0 14 2 19 5 13
2 -7 2 -19 0 -25z m-2 -150 c-12 -240 -26 -292 -150 -553 -13 -27 -38 -86 -55
-130 -18 -44 -35 -84 -40 -90 -4 -5 -13 -30 -20 -55 -34 -126 -190 -465 -190
-412 0 7 6 23 14 35 26 39 202 498 261 678 32 96 71 208 87 250 16 42 36 116
43 165 8 49 20 124 27 167 19 120 31 92 23 -55z m-3175 -903 c0 -3 -2 -5 -5
-5 -3 0 -5 2 -5 5 0 3 2 5 5 5 3 0 5 -2 5 -5z m-11 -217 c0 -130 -3 -167 -11
-148 -16 39 -20 188 -6 258 6 34 13 62 15 62 2 0 3 -78 2 -172z m5848 -67 c23
-11 57 -21 75 -21 36 0 108 -42 193 -114 137 -116 369 -238 548 -289 64 -19
114 -37 110 -40 -12 -12 -196 -7 -278 7 -105 19 -161 41 -278 109 -53 32 -99
57 -102 57 -4 0 -44 27 -88 59 -102 73 -257 239 -257 275 0 5 8 2 18 -6 9 -9
36 -25 59 -37z m-3130 -98 c-4 -3 -7 0 -7 7 0 7 3 10 7 7 3 -4 3 -10 0 -14z
m5519 -88 c7 -19 14 -40 14 -47 -1 -15 -24 26 -34 60 -11 35 3 26 20 -13z
m-2581 15 c3 -5 4 -10 1 -10 -3 0 -8 5 -11 10 -3 6 -4 10 -1 10 3 0 8 -4 11
-10z m-5605 -292 c0 -30 58 -190 150 -413 34 -82 85 -222 112 -310 27 -88 61
-187 76 -220 23 -53 26 -79 32 -230 4 -93 6 -172 4 -174 -3 -3 -19 11 -37 31
-30 33 -121 86 -177 103 -129 40 -401 182 -452 237 -15 17 -34 28 -42 25 -19
-8 -107 68 -130 111 -53 103 -84 245 -87 410 -2 99 -5 95 141 200 58 41 146
115 195 163 50 48 113 101 140 117 l50 29 12 -26 c7 -14 12 -38 13 -53z m649
-153 c13 -72 13 -75 1 -75 -5 0 -9 3 -9 8 1 4 0 9 -1 12 -9 19 -24 184 -21
225 4 47 5 45 12 -31 4 -45 12 -107 18 -139z m7601 80 c0 -3 -2 -5 -5 -5 -3 0
-5 2 -5 5 0 3 2 5 5 5 3 0 5 -2 5 -5z m-5831 -330 c-4 -71 -15 -166 -23 -210
-8 -44 -17 -109 -21 -145 -6 -66 -13 -113 -40 -278 -33 -198 -55 -938 -32
-1073 14 -83 23 -215 16 -247 -4 -18 -2 -33 4 -35 6 -2 3 -14 -7 -29 -10 -15
-13 -28 -7 -30 14 -4 27 -71 45 -223 32 -268 59 -386 101 -446 20 -30 57 -70
81 -89 44 -34 44 -35 18 -38 -47 -6 -74 6 -74 33 0 28 -15 33 -27 10 -12 -21
-62 -5 -110 34 -20 16 -40 28 -44 25 -4 -2 -7 4 -6 13 1 23 -32 75 -44 67 -5
-3 -5 -13 1 -24 15 -28 12 -32 -11 -18 -58 35 -119 253 -139 494 -29 338 33
1074 125 1493 63 288 105 476 119 536 8 33 24 110 36 170 20 100 37 152 45
143 1 -1 -1 -61 -6 -133z m-1689 -123 c0 -9 7 -37 16 -62 14 -41 31 -106 54
-215 27 -128 40 -446 22 -575 l-8 -65 -7 70 c-4 39 -14 120 -22 181 -8 61 -15
135 -15 164 0 63 -25 295 -39 360 -16 74 -23 172 -11 165 5 -3 10 -14 10 -23z
m-275 -552 c44 -71 50 -434 9 -615 -27 -122 -46 -198 -64 -255 -10 -30 -28
-85 -39 -121 -11 -37 -47 -123 -80 -192 -52 -109 -68 -131 -122 -181 -34 -31
-65 -56 -68 -56 -3 0 -14 14 -23 30 -26 45 -60 41 -83 -11 -19 -41 -19 -41
-65 -36 -25 2 -58 10 -75 17 l-30 12 52 14 c178 46 342 217 450 468 75 175 90
286 98 726 3 162 6 300 6 305 1 6 7 -13 14 -41 7 -28 16 -57 20 -64z m5271
-408 c-16 -15 -25 -20 -21 -12 13 25 38 50 44 45 3 -3 -8 -18 -23 -33z m-4856
-274 c0 -18 3 -111 7 -205 3 -112 2 -173 -4 -173 -15 0 -23 87 -23 258 0 95 4
152 10 152 6 0 10 -15 10 -32z m-61 -211 c-1 -51 -5 -101 -9 -112 -4 -11 -16
-47 -26 -80 -10 -33 -21 -64 -25 -70 -3 -5 -14 -37 -24 -70 -9 -33 -37 -109
-62 -168 -38 -90 -52 -112 -82 -132 -54 -35 -263 -60 -301 -35 -13 8 -12 10 3
10 72 0 241 109 301 193 70 98 147 294 191 484 11 45 23 79 28 76 4 -3 7 -46
6 -96z m1708 -214 c-4 -3 -7 0 -7 7 0 7 3 10 7 7 3 -4 3 -10 0 -14z m43 7 c0
-5 -5 -10 -11 -10 -5 0 -7 5 -4 10 3 6 8 10 11 10 2 0 4 -4 4 -10z m50 5 c0
-3 -2 -5 -5 -5 -3 0 -5 2 -5 5 0 3 2 5 5 5 3 0 5 -2 5 -5z m50 -30 c0 -3 -2
-5 -5 -5 -3 0 -5 2 -5 5 0 3 2 5 5 5 3 0 5 -2 5 -5z m-2620 -289 c0 -15 -18
-31 -26 -23 -7 7 7 37 17 37 5 0 9 -6 9 -14z m52 -81 c18 -17 43 -38 56 -47
23 -16 22 -16 -36 -23 -38 -4 -68 -3 -81 4 -20 11 -39 71 -27 89 11 18 55 6
88 -23z m1728 -150 c0 -3 -2 -5 -5 -5 -3 0 -5 2 -5 5 0 3 2 5 5 5 3 0 5 -2 5
-5z m10 -320 c0 -3 -2 -5 -5 -5 -3 0 -5 2 -5 5 0 3 2 5 5 5 3 0 5 -2 5 -5z
m129 -169 c9 -8 40 -30 70 -50 34 -22 49 -37 40 -40 -95 -31 -109 -30 -109 3
0 10 -7 37 -15 60 -15 43 -12 50 14 27z M1705 5908 c-9 -35 -31 -103 -47 -151
-16 -49 -28 -101 -26 -115 2 -18 11 2 27 63 13 50 32 107 43 128 18 36 37 137
26 137 -3 0 -13 -28 -23 -62z M3446 10305 c-9 -26 -7 -32 5 -12 6 10 9 21 6
23 -2 3 -7 -2 -11 -11z M3430 10265 c0 -3 2 -5 5 -5 3 0 5 2 5 5 0 3 -2 5 -5
5 -3 0 -5 -2 -5 -5z M3414 10238 c-4 -7 -3 -8 4 -4 12 7 16 16 8 16 -3 0 -8
-5 -12 -12z M3370 10155 c0 -3 2 -5 5 -5 3 0 5 2 5 5 0 3 -2 5 -5 5 -3 0 -5
-2 -5 -5z M3360 10135 c0 -3 2 -5 5 -5 3 0 5 2 5 5 0 3 -2 5 -5 5 -3 0 -5 -2
-5 -5z M3350 10115 c0 -3 2 -5 5 -5 3 0 5 2 5 5 0 3 -2 5 -5 5 -3 0 -5 -2 -5
-5z M2830 7843 c-6 -32 -23 -106 -37 -165 -14 -59 -23 -113 -21 -120 5 -13 48
165 68 276 13 77 5 85 -10 9z M2761 7504 c0 -11 3 -14 6 -6 3 7 2 16 -1 19 -3
4 -6 -2 -5 -13z M2736 7422 c-10 -32 -16 -67 -14 -78 2 -10 12 14 22 54 22 88
16 105 -8 24z M2835 6831 c-16 -39 -26 -73 -23 -76 2 -3 17 27 32 66 15 39 26
73 23 75 -3 3 -17 -27 -32 -65z M2785 6693 c-38 -108 -111 -279 -199 -468 -52
-110 -92 -202 -90 -204 6 -6 2 -14 111 214 116 242 214 488 200 501 -3 3 -13
-16 -22 -43z M3206 6634 c-3 -9 -6 -52 -6 -97 0 -96 -29 -259 -60 -336 -16
-41 -17 -51 -6 -42 38 32 75 193 91 404 5 56 4 87 -3 87 -5 0 -13 -7 -16 -16z
M3096 6087 c-9 -17 -23 -43 -31 -57 -18 -34 -29 -80 -18 -80 10 0 42 56 47 85
2 11 9 33 15 49 16 40 8 42 -13 3z M2397 5852 c-20 -37 -53 -94 -72 -127 -38
-65 -48 -107 -16 -66 24 31 135 250 130 255 -2 3 -21 -26 -42 -62z M3312 5755
c-14 -31 -15 -35 -3 -35 9 0 25 49 18 56 -2 2 -9 -7 -15 -21z M2260 5605 c0
-3 2 -5 5 -5 3 0 5 2 5 5 0 3 -2 5 -5 5 -3 0 -5 -2 -5 -5z M2240 5575 c0 -3 2
-5 5 -5 3 0 5 2 5 5 0 3 -2 5 -5 5 -3 0 -5 -2 -5 -5z M2193 5498 c-22 -29 -84
-152 -70 -138 17 16 92 150 84 150 -2 0 -9 -6 -14 -12z M2100 5330 c0 -7 3
-10 7 -7 3 4 3 10 0 14 -4 3 -7 0 -7 -7z M2084 5298 c-4 -7 -3 -8 4 -4 7 4 12
9 12 12 0 8 -9 4 -16 -8z M2070 5265 c0 -3 2 -5 5 -5 3 0 5 2 5 5 0 3 -2 5 -5
5 -3 0 -5 -2 -5 -5z M2612 1745 c0 -11 4 -31 8 -45 l8 -25 0 25 c0 14 -3 34
-8 45 l-9 20 1 -20z M4955 11600 c-4 -6 -3 -10 2 -9 4 1 15 0 23 -4 34 -13 70
-14 70 -2 0 24 -82 36 -95 15z M5073 11563 c4 -3 10 -3 14 0 3 4 0 7 -7 7 -7
0 -10 -3 -7 -7z M5130 11540 c0 -5 7 -10 15 -10 8 0 15 5 15 10 0 6 -7 10 -15
10 -8 0 -15 -4 -15 -10z M5300 11485 c0 -3 2 -5 5 -5 3 0 5 2 5 5 0 3 -2 5 -5
5 -3 0 -5 -2 -5 -5z M5376 11451 c-3 -5 1 -11 9 -15 9 -3 15 0 15 9 0 16 -16
20 -24 6z M3806 8891 c-4 -5 12 -25 34 -44 l41 -35 -35 -6 c-38 -7 -65 -32
-50 -46 5 -5 33 -1 67 11 39 13 70 17 93 13 44 -8 52 -22 17 -30 -15 -4 -41
-16 -59 -26 -36 -21 -116 -46 -165 -52 -20 -2 -34 -9 -34 -17 0 -10 19 -15 75
-17 79 -3 119 -20 81 -34 -22 -8 -28 -32 -12 -43 5 -3 12 -1 16 5 12 19 35 11
32 -12 -2 -18 4 -23 34 -28 20 -4 52 -14 71 -23 77 -37 109 -17 34 21 -28 14
-46 30 -46 40 0 10 -18 29 -40 42 -37 24 -50 40 -31 40 4 0 48 22 97 49 49 27
102 52 118 55 26 7 28 5 22 -16 -26 -84 -12 -199 27 -236 30 -27 89 -42 167
-42 79 0 127 22 149 67 20 41 25 41 36 1 9 -29 7 -36 -14 -54 -37 -32 -22 -58
27 -50 30 5 40 2 53 -16 9 -11 21 -18 28 -14 14 9 15 46 0 46 -5 0 -24 30 -41
68 -64 142 -72 154 -133 199 -86 64 -154 97 -247 117 -20 5 -25 10 -21 26 7
25 -22 28 -35 4 -12 -21 -55 -12 -80 16 -22 26 -46 26 -39 0 5 -18 -4 -25 -26
-21 -5 1 -26 -3 -49 -9 -38 -11 -43 -9 -94 24 -59 40 -60 40 -68 27z m254 -91
c-36 -12 -60 -12 -60 0 0 6 19 10 43 9 36 -1 38 -2 17 -9z m324 -91 c14 -13
-33 -59 -60 -59 -29 0 -38 27 -19 57 16 23 55 24 79 2z m39 -123 c6 -16 -65
-39 -98 -32 -11 3 -23 5 -27 5 -5 1 -8 8 -8 17 0 12 7 14 28 10 15 -3 41 -2
57 3 41 13 42 13 48 -3z M6071 8756 c-7 -8 -31 -17 -54 -21 -23 -4 -91 -20
-150 -35 -142 -38 -174 -61 -258 -184 -62 -91 -80 -133 -63 -147 17 -14 40 2
50 34 10 32 106 177 117 177 5 0 6 -16 3 -35 -8 -43 21 -116 56 -138 12 -9 55
-19 95 -23 68 -6 75 -5 139 27 84 43 115 94 94 161 -16 54 -9 56 52 18 96 -60
119 -73 155 -85 l36 -13 -59 -17 c-62 -18 -114 -44 -114 -57 0 -4 16 -8 35 -8
22 0 38 -6 41 -15 4 -8 12 -15 19 -15 7 0 15 7 19 15 3 9 18 15 36 15 19 0 30
5 30 14 0 16 62 26 156 26 34 0 65 4 69 10 8 14 -61 46 -130 60 -33 7 -87 26
-120 43 l-60 30 32 9 c24 6 50 2 107 -17 86 -29 96 -30 96 -12 0 15 -30 32
-74 42 -22 5 -26 9 -17 15 29 17 4 39 -37 33 -39 -5 -182 41 -182 59 0 3 14
12 30 20 17 7 30 16 30 20 0 16 -58 7 -83 -12 -14 -11 -38 -20 -53 -20 -26 0
-27 0 -9 20 18 19 17 20 -2 20 -11 0 -26 -6 -32 -14z m29 -66 c0 -5 -7 -10
-15 -10 -8 0 -15 5 -15 10 0 6 7 10 15 10 8 0 15 -4 15 -10z m130 -30 l55 -19
-30 -11 c-30 -11 -30 -11 -97 25 -10 5 -18 13 -18 17 0 13 31 9 90 -12z m-310
-17 c0 -34 -58 -73 -61 -40 -2 23 3 42 14 49 21 14 47 8 47 -9z m84 -92 c-8
-18 -14 -35 -14 -36 0 -5 -57 -26 -66 -24 -5 1 -16 1 -24 0 -13 -1 -13 -2 0
-11 12 -8 11 -10 -6 -10 -11 0 -29 9 -39 20 -10 11 -24 20 -30 20 -12 0 -25
21 -25 41 0 5 11 2 25 -7 17 -11 25 -12 25 -5 0 8 12 11 33 9 17 -2 39 3 47
10 66 56 75 61 81 44 4 -9 0 -32 -7 -51z m-74 -76 c0 -3 -2 -5 -5 -5 -3 0 -5
2 -5 5 0 3 2 5 5 5 3 0 5 -2 5 -5z M5990 8565 c0 -3 2 -5 5 -5 3 0 5 2 5 5 0
3 -2 5 -5 5 -3 0 -5 -2 -5 -5z M3750 8531 c0 -33 99 -91 167 -99 61 -7 54 12
-12 33 -30 9 -70 27 -87 39 -40 27 -68 38 -68 27z M6433 8379 c-70 -27 -74
-55 -5 -33 26 8 57 17 70 20 26 7 29 19 6 28 -9 3 -16 6 -17 5 -1 0 -26 -9
-54 -20z M4986 8055 c-3 -9 -6 -31 -6 -49 0 -24 -10 -41 -40 -71 -48 -47 -52
-83 -15 -137 30 -44 58 -62 85 -53 23 7 27 25 6 25 -24 0 -73 48 -81 77 -6 24
-1 33 33 63 37 33 40 41 43 95 4 57 -11 86 -25 50z M5375 7758 c-4 -9 -5 -24
-3 -34 2 -13 -8 -24 -32 -35 -35 -17 -35 -17 -48 7 -15 28 -19 29 -82 8 -56
-18 -73 -34 -64 -58 8 -21 13 -21 74 10 38 19 55 23 63 15 8 -8 5 -11 -10 -11
-28 0 -53 -10 -53 -21 0 -14 71 -9 130 10 l55 17 -1 42 c-1 47 -19 77 -29 50z
M4704 7734 c-18 -71 29 -121 125 -131 58 -6 63 -5 59 13 -2 14 -16 21 -58 26
-61 9 -95 37 -86 72 5 20 -9 46 -25 46 -5 0 -12 -12 -15 -26z M4841 7721 c-32
-9 -50 -36 -33 -53 9 -9 15 -9 24 0 20 20 57 13 104 -19 42 -29 74 -33 74 -10
0 13 -115 91 -132 90 -7 -1 -24 -4 -37 -8z M4988 7409 c-30 -17 -10 -41 31
-36 31 3 81 -5 179 -30 15 -4 22 -1 22 8 -1 32 -27 45 -111 57 -101 14 -99 14
-121 1z M4504 7299 c7 -44 43 -119 58 -119 4 0 8 -7 8 -15 0 -8 6 -15 13 -15
18 0 36 20 31 34 -3 8 23 11 83 11 49 0 146 11 218 25 150 27 248 22 440 -26
82 -21 119 -25 202 -22 94 3 103 1 105 -16 4 -24 34 -44 47 -31 5 6 6 42 2 80
-5 63 -8 70 -28 73 -15 2 -23 -2 -23 -12 0 -54 -144 -64 -304 -22 -99 26 -323
52 -371 43 -143 -27 -277 -47 -312 -47 -67 0 -119 25 -130 63 -5 19 -17 33
-27 35 -17 4 -18 -1 -12 -39z M4897 7034 c-46 -46 86 -83 293 -83 138 0 170 7
170 40 0 12 -27 14 -162 11 -155 -3 -213 4 -279 32 -8 4 -18 3 -22 0z M5370
6996 c0 -18 27 -39 40 -31 15 9 12 32 -6 39 -24 9 -34 7 -34 -8z M3770 9365
c0 -3 2 -5 5 -5 3 0 5 2 5 5 0 3 -2 5 -5 5 -3 0 -5 -2 -5 -5z M3660 3995 c0
-3 2 -5 5 -5 3 0 5 2 5 5 0 3 -2 5 -5 5 -3 0 -5 -2 -5 -5z M3270 2500 c0 -7 3
-10 7 -7 3 4 3 10 0 14 -4 3 -7 0 -7 -7z M3262 2420 c0 -14 2 -19 5 -12 2 6 2
18 0 25 -3 6 -5 1 -5 -13z M3182 1880 c0 -14 2 -19 5 -12 2 6 2 18 0 25 -3 6
-5 1 -5 -13z M6357 5470 c3 -25 12 -63 19 -85 l13 -40 -5 55 c-4 30 -12 69
-20 85 -13 29 -13 29 -7 -15z M6430 4755 c0 -5 5 -17 10 -25 5 -8 10 -10 10
-5 0 6 -5 17 -10 25 -5 8 -10 11 -10 5z M6456 4670 c3 -14 11 -32 16 -40 6
-10 7 -7 2 10 -3 14 -11 32 -16 40 -6 10 -7 7 -2 -10z M3940 3997 c0 -21 9
-26 77 -38 99 -19 140 -47 289 -203 77 -80 147 -146 156 -146 29 0 33 39 6 58
-12 9 -81 73 -153 144 -148 146 -212 186 -314 195 -51 5 -61 3 -61 -10z M6309
3900 c-8 -5 -121 -14 -250 -20 -559 -27 -539 -23 -658 -134 -64 -60 -68 -66
-52 -80 16 -14 21 -11 67 35 83 85 117 100 252 110 64 5 149 13 187 19 39 5
164 12 279 15 204 5 225 8 226 37 0 14 -36 26 -51 18z M3640 3625 c0 -3 2 -5
5 -5 3 0 5 2 5 5 0 3 -2 5 -5 5 -3 0 -5 -2 -5 -5z M3529 1828 c-1 -7 -1 -19 0
-27 2 -7 -2 -10 -7 -7 -5 3 -14 0 -19 -7 -13 -16 -25 -89 -13 -82 4 3 11 -2
14 -11 4 -10 2 -13 -6 -8 -7 5 -9 0 -6 -14 4 -15 2 -22 -8 -22 -8 0 -14 -3
-15 -7 0 -5 -2 -19 -5 -32 -2 -13 3 -32 11 -41 14 -15 14 -18 0 -30 -25 -21
-19 -74 10 -90 29 -15 32 -25 10 -34 -19 -7 -19 -30 0 -60 12 -18 13 -33 4
-80 -5 -31 -9 -71 -7 -87 l3 -31 25 28 c14 15 19 24 12 20 -10 -6 -13 -1 -10
20 3 25 7 29 31 26 15 -1 27 2 27 8 0 5 -5 10 -11 10 -6 0 -9 6 -6 14 3 8 1
17 -6 19 -9 3 -9 8 1 20 15 18 9 34 -20 55 -10 7 -18 20 -18 29 0 13 3 13 15
3 13 -11 15 -8 15 14 0 17 -5 26 -16 26 -10 0 -14 6 -10 15 3 8 1 15 -5 15 -6
0 -9 6 -6 13 2 6 9 11 15 10 5 -1 9 12 8 30 -2 23 -7 32 -19 31 -11 -1 -17 6
-17 20 0 17 2 18 10 6 14 -22 23 -5 25 47 2 27 8 61 14 76 15 39 13 56 -4 33
-8 -11 -15 -15 -15 -9 0 6 7 16 15 23 23 19 28 48 11 65 -18 18 -26 19 -27 3z
m-39 -233 c0 -3 -2 -5 -5 -5 -3 0 -5 2 -5 5 0 3 2 5 5 5 3 0 5 -2 5 -5z m20
-70 c0 -3 -2 -5 -5 -5 -3 0 -5 2 -5 5 0 3 2 5 5 5 3 0 5 -2 5 -5z M2385 12510
c-3 -5 -1 -28 6 -49 16 -54 3 -69 -64 -73 -38 -2 -53 -7 -55 -19 -3 -17 36
-39 69 -39 11 0 22 -7 25 -15 7 -17 34 -21 34 -5 0 25 22 10 152 -107 96 -88
125 -55 40 46 -91 107 -99 134 -36 124 45 -7 86 13 82 41 -4 28 -45 32 -104
12 l-45 -15 -17 31 c-32 60 -72 92 -87 68z M2342 12247 c-37 -38 -40 -56 -12
-88 l20 -24 25 28 c19 21 25 39 25 73 0 54 -14 57 -58 11z M9200 8845 c0 -38
-29 -59 -74 -53 -35 5 -30 -28 8 -57 44 -33 44 -41 4 -75 -38 -32 -35 -80 6
-80 24 0 56 28 56 48 0 39 79 -5 124 -68 24 -34 43 -50 54 -48 24 5 17 31 -29
107 -53 88 -52 94 21 114 62 18 70 29 46 62 -14 19 -15 19 -65 1 -61 -22 -77
-17 -86 23 -14 65 -65 84 -65 26z m63 -119 c8 -21 -3 -27 -19 -11 -18 17 -18
25 0 25 8 0 16 -6 19 -14z M83 5353 c4 -3 10 -3 14 0 3 4 0 7 -7 7 -7 0 -10
-3 -7 -7z M138 5303 c-22 -5 -24 -23 -3 -23 8 0 15 -4 15 -10 0 -16 27 -12 34
5 6 17 -21 33 -46 28z m32 -28 c0 -3 -2 -5 -5 -5 -3 0 -5 2 -5 5 0 3 2 5 5 5
3 0 5 -2 5 -5z M6375 1930 c-8 -25 10 -50 36 -50 19 0 25 23 13 54 -9 23 -41
20 -49 -4z M4145 1930 c40 -10 93 -12 98 -2 3 4 -25 8 -62 8 -48 2 -58 0 -36
-6z M4265 1930 c-4 -6 7 -10 27 -9 27 0 30 2 13 9 -27 12 -33 12 -40 0z M3701
1886 c-11 -13 -10 -17 3 -22 22 -8 30 1 19 21 -9 15 -11 15 -22 1z M3720 1845
c0 -3 2 -5 5 -5 3 0 5 2 5 5 0 3 -2 5 -5 5 -3 0 -5 -2 -5 -5z M4355 1770 c-3
-5 -1 -10 4 -10 6 0 11 5 11 10 0 6 -2 10 -4 10 -3 0 -8 -4 -11 -10z M4387
1743 c3 -7 6 -13 8 -13 2 0 5 6 8 13 3 8 -1 14 -8 14 -7 0 -11 -6 -8 -14z
M4430 1730 c0 -7 3 -10 7 -7 3 4 3 10 0 14 -4 3 -7 0 -7 -7z M4401 1704 c0
-11 3 -14 6 -6 3 7 2 16 -1 19 -3 4 -6 -2 -5 -13z M4460 1708 c0 -4 7 -8 15
-8 8 0 15 4 15 8 0 5 -7 9 -15 9 -8 0 -15 -4 -15 -9z M4350 1679 c0 -5 5 -7
10 -4 6 3 10 8 10 11 0 2 -4 4 -10 4 -5 0 -10 -5 -10 -11z M4510 1685 c0 -3 2
-5 5 -5 3 0 5 2 5 5 0 3 -2 5 -5 5 -3 0 -5 -2 -5 -5z M4430 1671 c0 -6 5 -13
10 -16 6 -3 10 1 10 9 0 9 -4 16 -10 16 -5 0 -10 -4 -10 -9z M4805 1673 c11
-3 22 -9 25 -13 3 -4 11 -2 18 6 11 12 7 14 -25 13 -22 -1 -30 -3 -18 -6z
M5030 1675 c0 -3 2 -5 5 -5 3 0 5 2 5 5 0 3 -2 5 -5 5 -3 0 -5 -2 -5 -5z
M5190 1670 c-12 -8 -10 -10 8 -10 13 0 20 4 17 10 -7 12 -6 12 -25 0z M4640
1660 c0 -5 9 -10 20 -10 11 0 20 5 20 10 0 6 -9 10 -20 10 -11 0 -20 -4 -20
-10z M4530 1655 c0 -3 2 -5 5 -5 3 0 5 2 5 5 0 3 -2 5 -5 5 -3 0 -5 -2 -5 -5z
M4780 1650 c0 -7 3 -10 7 -7 3 4 3 10 0 14 -4 3 -7 0 -7 -7z M4860 1645 c0 -3
2 -5 5 -5 3 0 5 2 5 5 0 3 -2 5 -5 5 -3 0 -5 -2 -5 -5z M4890 1640 c0 -5 5
-10 10 -10 6 0 10 5 10 10 0 6 -4 10 -10 10 -5 0 -10 -4 -10 -10z M4420 1635
c0 -3 2 -5 5 -5 3 0 5 2 5 5 0 3 -2 5 -5 5 -3 0 -5 -2 -5 -5z M4691 1624 c0
-11 3 -14 6 -6 3 7 2 16 -1 19 -3 4 -6 -2 -5 -13z M4785 1620 c3 -5 11 -10 16
-10 6 0 7 5 4 10 -3 6 -11 10 -16 10 -6 0 -7 -4 -4 -10z M4210 1605 c0 -3 2
-5 5 -5 3 0 5 2 5 5 0 3 -2 5 -5 5 -3 0 -5 -2 -5 -5z M4300 1605 c0 -3 2 -5 5
-5 3 0 5 2 5 5 0 3 -2 5 -5 5 -3 0 -5 -2 -5 -5z M4390 1605 c0 -3 2 -5 5 -5 3
0 5 2 5 5 0 3 -2 5 -5 5 -3 0 -5 -2 -5 -5z M4440 1605 c0 -3 2 -5 5 -5 3 0 5
2 5 5 0 3 -2 5 -5 5 -3 0 -5 -2 -5 -5z M5190 1595 c0 -3 2 -5 5 -5 3 0 5 2 5
5 0 3 -2 5 -5 5 -3 0 -5 -2 -5 -5z M4600 1580 c0 -7 3 -10 7 -7 3 4 3 10 0 14
-4 3 -7 0 -7 -7z M4590 1545 c0 -3 2 -5 5 -5 3 0 5 2 5 5 0 3 -2 5 -5 5 -3 0
-5 -2 -5 -5z M4415 1530 c-3 -5 -1 -10 4 -10 6 0 11 5 11 10 0 6 -2 10 -4 10
-3 0 -8 -4 -11 -10z M3990 1525 c0 -3 2 -5 5 -5 3 0 5 2 5 5 0 3 -2 5 -5 5 -3
0 -5 -2 -5 -5z M4420 1500 c0 -7 3 -10 7 -7 3 4 3 10 0 14 -4 3 -7 0 -7 -7z
M5375 1480 c3 -5 8 -10 11 -10 3 0 2 5 -1 10 -3 6 -8 10 -11 10 -3 0 -2 -4 1
-10z M4420 1435 c0 -3 2 -5 5 -5 3 0 5 2 5 5 0 3 -2 5 -5 5 -3 0 -5 -2 -5 -5z
M4670 1435 c0 -3 2 -5 5 -5 3 0 5 2 5 5 0 3 -2 5 -5 5 -3 0 -5 -2 -5 -5z
M4747 1369 c4 -13 9 -17 15 -11 11 11 3 32 -12 32 -4 0 -6 -9 -3 -21z M4370
1365 c0 -3 2 -5 5 -5 3 0 5 2 5 5 0 3 -2 5 -5 5 -3 0 -5 -2 -5 -5z M4681 1344
c0 -11 3 -14 6 -6 3 7 2 16 -1 19 -3 4 -6 -2 -5 -13z M5010 1345 c0 -3 2 -5 5
-5 3 0 5 2 5 5 0 3 -2 5 -5 5 -3 0 -5 -2 -5 -5z M4396 1325 c-3 -8 -1 -15 4
-15 6 0 10 7 10 15 0 8 -2 15 -4 15 -2 0 -6 -7 -10 -15z M0 990 c0 -16 4 -30
9 -30 12 0 24 37 16 50 -12 20 -25 10 -25 -20z M3530 610 c-12 -7 -10 -16 10
-57 27 -55 37 -45 18 21 -10 35 -17 43 -28 36z M8907 543 c-29 -28 26 -77 61
-54 24 15 4 61 -27 61 -15 0 -31 -3 -34 -7z"/>
</g>
</svg>
