<?xml version="1.0" encoding="utf-8"?>
<svg version="1.0" width="1057.000000pt" height="1280.000000pt" viewBox="0 0 1057.000000 1280.000000" preserveAspectRatio="xMidYMid meet" xmlns="http://www.w3.org/2000/svg">
  <g transform="translate(0.000000,1280.000000) scale(0.100000,-0.100000)" fill="#000000" stroke="none">
    <path d="M 5425 12630 C 5387 12619 5324 12606 5285 12599 C 5200 12586 5045 12529 4993 12493 C 4972 12478 4935 12452 4910 12435 C 4883 12417 4828 12395 4778 12381 C 4729 12368 4684 12350 4674 12339 C 4665 12329 4649 12320 4640 12320 C 4630 12320 4620 12314 4617 12306 C 4612 12294 4603 12295 4558 12312 C 4471 12346 4309 12317 4160 12241 C 4128 12224 4077 12204 4047 12195 C 3993 12179 3778 12035 3625 11911 C 3556 11855 3411 11699 3332 11595 C 3306 11562 3231 11474 3165 11400 C 2993 11208 2832 10926 2734 10646 C 2705 10563 2663 10443 2640 10380 C 2617 10317 2584 10211 2566 10145 C 2547 10079 2514 9960 2491 9880 C 2468 9800 2436 9690 2421 9635 C 2348 9383 2252 8960 2240 8840 C 2235 8788 2215 8664 2195 8565 C 2080 7965 2050 7611 2090 7285 C 2119 7042 2114 7000 2031 6822 C 1999 6752 1960 6664 1945 6625 C 1912 6542 1783 6280 1733 6195 C 1713 6162 1684 6113 1667 6085 C 1651 6058 1614 5994 1585 5944 C 1556 5894 1504 5813 1469 5764 C 1435 5715 1401 5661 1393 5643 C 1386 5625 1363 5585 1343 5553 C 1282 5459 1208 5249 1196 5135 C 1192 5102 1182 5041 1175 5000 C 1152 4882 1130 4678 1130 4587 C 1130 4510 1134 4494 1175 4396 C 1224 4280 1226 4270 1208 4270 C 1192 4270 1088 4190 1020 4124 C 955 4063 709 3865 663 3837 L 631 3818 L 636 3737 C 639 3692 642 3648 642 3640 C 642 3605 671 3402 679 3375 C 684 3359 692 3325 696 3300 C 702 3259 728 3216 787 3149 L 810 3124 L 750 3077 C 715 3049 690 3022 690 3011 C 690 3001 680 2980 668 2964 C 647 2938 645 2926 648 2848 C 651 2762 649 2750 603 2595 C 578 2513 524 2409 465 2332 C 356 2191 275 2028 212 1830 C 200 1794 170 1709 145 1640 C 119 1571 83 1457 64 1385 C 44 1314 22 1240 14 1222 C 6 1203 0 1164 0 1135 C 0 1089 3 1082 25 1072 C 69 1052 105 1065 66 1087 C 42 1100 126 1406 267 1815 C 319 1965 365 2060 426 2146 C 450 2180 477 2225 486 2246 C 495 2267 519 2309 539 2339 C 643 2495 703 2657 724 2842 C 734 2927 744 2967 758 2987 C 788 3029 887 3120 903 3120 C 910 3120 955 3097 1001 3069 C 1093 3012 1250 2936 1375 2886 C 1479 2844 1537 2807 1561 2766 C 1571 2748 1591 2727 1605 2720 C 1628 2708 1630 2701 1630 2638 C 1630 2535 1611 2388 1585 2285 C 1543 2120 1408 1890 1296 1793 C 1223 1731 1094 1677 1078 1703 C 1073 1712 1066 1712 1053 1704 C 1027 1688 994 1703 975 1739 C 960 1769 940 1781 940 1760 C 940 1735 982 1671 1002 1664 C 1015 1660 1031 1649 1037 1640 C 1053 1617 1132 1590 1181 1590 C 1222 1590 1230 1579 1230 1525 C 1230 1464 1299 1444 1417 1471 C 1457 1480 1478 1480 1531 1466 C 1584 1453 1611 1452 1690 1461 C 1867 1480 1896 1496 1945 1604 C 1984 1689 2067 1935 2076 1990 C 2086 2051 2094 2039 2113 1938 C 2127 1860 2128 1802 2123 1578 C 2117 1319 2118 1308 2140 1243 C 2183 1113 2261 989 2374 871 C 2581 656 2781 620 3119 735 C 3242 776 3230 774 3230 751 C 3230 741 3237 727 3246 719 C 3260 708 3261 710 3255 741 C 3250 771 3252 776 3277 787 C 3324 807 3392 819 3460 820 C 3502 820 3549 829 3594 845 C 3656 867 3670 868 3737 860 C 3846 846 3912 865 3968 926 C 4014 976 4020 996 3991 1005 C 3968 1012 3938 1001 3946 988 C 3956 972 3922 944 3888 942 C 3850 939 3792 991 3752 1063 C 3705 1145 3663 1382 3635 1720 C 3626 1827 3617 1925 3614 1938 C 3608 1966 3623 1966 3685 1940 C 3711 1929 3736 1922 3741 1925 C 3746 1928 3759 1926 3771 1920 C 3853 1875 4085 1842 4352 1835 C 4482 1832 4632 1823 4685 1815 C 4789 1800 4941 1793 4959 1804 C 4964 1808 4978 1802 4990 1790 C 5001 1779 5018 1770 5028 1770 C 5042 1770 5043 1772 5030 1780 C 5022 1785 5020 1790 5025 1790 C 5031 1790 5041 1785 5047 1779 C 5053 1773 5073 1767 5091 1765 C 5110 1764 5150 1760 5180 1755 C 5224 1750 5262 1754 5370 1778 C 5506 1808 5546 1814 5675 1825 C 5714 1828 5799 1841 5865 1852 C 5940 1866 6028 1874 6100 1875 C 6210 1875 6240 1882 6240 1908 C 6240 1936 6212 1939 6073 1925 C 5995 1917 5898 1904 5858 1896 C 5818 1888 5729 1876 5660 1870 C 5550 1859 5461 1844 5300 1808 C 5241 1795 5174 1797 5086 1814 C 5047 1822 4953 1831 4877 1835 C 4801 1838 4734 1843 4727 1845 C 4711 1851 4481 1872 4395 1875 C 4180 1884 4042 1894 4020 1903 C 4006 1909 3990 1912 3983 1911 C 3977 1910 3969 1914 3965 1919 C 3962 1925 3952 1926 3943 1923 C 3931 1918 3928 1921 3932 1932 C 3941 1954 3901 1984 3865 1983 C 3849 1982 3806 1979 3770 1975 C 3711 1969 3701 1971 3667 1994 C 3646 2008 3625 2020 3620 2020 C 3615 2020 3608 2030 3605 2043 C 3597 2074 3584 2320 3590 2320 C 3593 2320 3636 2311 3685 2301 C 3735 2290 3820 2276 3875 2270 C 3930 2264 4016 2252 4065 2245 C 4115 2237 4261 2224 4390 2215 C 4519 2207 4670 2192 4725 2183 C 4868 2158 5207 2158 5349 2183 C 5407 2193 5456 2203 5460 2205 C 5488 2222 5643 2234 5875 2237 C 6024 2238 6154 2240 6165 2241 C 6176 2241 6244 2239 6315 2235 C 6387 2230 6477 2227 6516 2227 L 6587 2227 L 6583 2181 C 6571 2042 6506 1728 6465 1605 C 6447 1550 6420 1465 6405 1415 C 6390 1366 6371 1305 6363 1281 C 6354 1257 6335 1190 6320 1131 C 6273 951 6234 809 6201 705 C 6183 650 6145 522 6115 420 C 6066 252 6063 235 6078 223 C 6088 216 6100 212 6105 214 C 6111 215 6131 282 6151 361 C 6170 440 6198 541 6213 585 C 6253 708 6326 965 6364 1118 C 6384 1193 6409 1282 6420 1315 C 6465 1444 6527 1673 6565 1847 C 6568 1860 6576 1867 6583 1864 C 6600 1858 6635 1896 6621 1905 C 6615 1908 6605 1908 6599 1904 C 6577 1891 6602 1965 6651 2058 C 6677 2109 6709 2179 6721 2213 C 6749 2293 6782 2338 6968 2550 C 7141 2748 7173 2776 7284 2832 C 7328 2854 7382 2883 7403 2897 C 7425 2911 7488 2939 7544 2960 C 7737 3033 7866 3091 8040 3184 C 8307 3327 8438 3391 8669 3489 C 8785 3539 8882 3580 8886 3580 C 8889 3580 8958 3613 9039 3654 C 9197 3733 9273 3778 9358 3843 C 9387 3865 9412 3881 9414 3879 C 9415 3877 9431 3854 9448 3829 C 9465 3803 9496 3767 9516 3749 C 9537 3730 9579 3691 9610 3663 C 9641 3634 9681 3599 9700 3585 C 9718 3571 9762 3534 9796 3501 C 9854 3445 9866 3425 10003 3148 C 10083 2987 10171 2817 10199 2771 L 10250 2687 L 10172 2613 C 10130 2573 10030 2487 9950 2423 C 9870 2359 9774 2281 9736 2251 C 9698 2220 9646 2171 9621 2141 C 9596 2111 9554 2063 9529 2035 C 9464 1965 9450 1935 9370 1685 C 9325 1548 9300 1488 9217 1325 C 9142 1178 9110 1113 9053 990 C 9034 949 8991 860 8958 793 C 8908 691 8900 668 8910 651 C 8916 639 8924 630 8928 630 C 8937 630 8967 650 8959 650 C 8948 650 9091 972 9217 1230 C 9361 1525 9350 1498 9417 1695 C 9447 1783 9485 1880 9502 1910 C 9561 2016 9704 2162 9905 2323 C 10009 2407 10129 2505 10170 2542 C 10226 2591 10248 2606 10257 2598 C 10270 2588 10271 2589 10274 2610 C 10277 2639 10300 2613 10348 2524 C 10378 2469 10429 2393 10461 2353 C 10494 2313 10532 2262 10545 2238 L 10570 2195 L 10570 2244 C 10570 2288 10563 2304 10503 2396 C 10228 2811 10236 2798 10147 2976 C 10049 3170 10009 3257 9969 3359 C 9932 3453 9908 3481 9767 3595 C 9716 3635 9636 3706 9588 3753 C 9495 3842 9480 3873 9524 3884 C 9561 3893 9582 3919 9576 3946 C 9572 3959 9563 4037 9555 4120 C 9534 4338 9504 4447 9450 4495 C 9438 4506 9401 4548 9368 4587 C 9336 4627 9293 4667 9274 4676 C 9227 4699 9215 4723 9236 4755 C 9261 4793 9240 4932 9187 5090 C 9138 5236 9004 5516 8932 5622 C 8904 5662 8847 5760 8805 5840 C 8762 5920 8711 6014 8690 6050 C 8641 6135 8534 6349 8516 6397 C 8509 6418 8480 6491 8452 6560 C 8396 6700 8348 6853 8331 6947 C 8324 6982 8310 7036 8299 7067 C 8288 7099 8270 7199 8260 7290 C 8249 7381 8232 7507 8222 7570 C 8207 7669 8205 7750 8207 8165 C 8209 8429 8211 8697 8212 8760 C 8214 8847 8210 8901 8193 8980 C 8148 9200 8136 9340 8134 9645 C 8133 9880 8129 9942 8117 9970 C 8109 9989 8086 10082 8066 10175 C 8046 10269 8017 10379 8001 10420 C 7963 10519 7924 10649 7905 10740 C 7896 10781 7883 10825 7875 10837 C 7867 10849 7843 10903 7821 10957 C 7684 11299 7602 11415 7248 11766 C 7021 11992 6957 12049 6870 12107 C 6730 12199 6504 12326 6405 12368 C 6361 12387 6280 12423 6225 12448 C 6083 12512 5829 12607 5738 12630 C 5642 12655 5520 12655 5425 12630 Z M 5855 12538 C 6218 12411 6438 12311 6710 12148 C 6921 12022 6980 11972 7340 11610 C 7498 11452 7620 11280 7696 11110 C 7784 10911 7968 10320 8019 10070 C 8052 9908 8053 9899 8051 9747 C 8048 9523 8071 9196 8106 8942 C 8114 8885 8120 8762 8120 8662 C 8120 8495 8127 8291 8150 7855 C 8161 7645 8209 7216 8241 7045 C 8271 6882 8340 6675 8440 6445 C 8469 6379 8511 6280 8535 6225 C 8589 6098 8609 6057 8680 5940 C 8711 5888 8758 5807 8785 5760 C 8811 5713 8859 5636 8891 5589 C 8990 5441 9131 5124 9176 4948 C 9194 4878 9190 4806 9166 4782 C 9149 4764 9149 4764 9130 4838 C 9123 4867 9101 4900 9067 4938 C 8958 5056 8924 5109 8816 5320 C 8781 5389 8703 5534 8642 5643 C 8581 5751 8522 5866 8510 5897 C 8498 5929 8478 5978 8465 6005 C 8453 6033 8430 6102 8415 6160 C 8400 6218 8379 6292 8370 6325 C 8332 6453 8280 6651 8246 6795 C 8226 6878 8206 6959 8201 6975 C 8196 6992 8187 7034 8181 7070 C 8175 7106 8161 7187 8151 7250 C 8140 7313 8126 7401 8120 7445 C 8087 7693 8027 8069 7996 8235 C 7975 8343 7935 8621 7910 8828 C 7856 9286 7745 9917 7659 10263 C 7624 10404 7552 10622 7503 10734 C 7403 10961 7179 11343 7050 11506 C 7011 11555 6952 11630 6917 11674 C 6833 11781 6690 11914 6545 12020 C 6448 12091 6369 12136 6134 12253 C 5975 12333 5815 12408 5779 12420 C 5659 12460 5428 12494 5285 12493 C 5128 12492 5071 12475 4968 12400 C 4903 12352 4879 12341 4880 12358 C 4881 12370 5050 12473 5117 12502 C 5152 12517 5206 12534 5237 12540 C 5269 12546 5340 12562 5395 12575 C 5560 12615 5654 12608 5855 12538 Z M 5465 12450 C 5787 12395 5764 12403 6141 12215 C 6430 12070 6537 11999 6723 11829 C 6916 11652 7131 11354 7327 10995 C 7531 10619 7592 10428 7725 9745 C 7739 9674 7759 9575 7769 9525 C 7794 9408 7811 9295 7860 8900 C 7896 8613 7940 8316 7970 8150 C 8022 7863 8047 7717 8064 7595 C 8122 7178 8142 7074 8216 6785 C 8398 6072 8446 5934 8605 5645 C 8651 5561 8729 5414 8777 5319 C 8877 5122 8931 5034 9014 4938 C 9086 4854 9140 4731 9110 4716 C 9100 4712 9090 4700 9087 4690 C 9079 4659 8918 4553 8747 4467 C 8620 4404 8635 4392 8512 4661 C 8390 4928 8291 5283 8129 6035 C 8118 6085 8096 6178 8079 6243 C 8043 6378 8046 6406 8083 6298 C 8197 5974 8223 5902 8258 5810 C 8307 5679 8410 5442 8485 5285 C 8582 5083 8658 4981 8773 4894 C 8807 4869 8858 4822 8886 4791 C 8939 4733 9039 4674 9066 4684 C 9092 4694 9080 4719 9038 4744 C 8976 4780 8931 4831 8853 4955 C 8747 5123 8666 5309 8555 5635 C 8530 5707 8492 5810 8470 5864 C 8448 5919 8430 5968 8430 5973 C 8430 5979 8410 6033 8385 6094 C 8335 6221 8275 6380 8223 6525 C 8203 6580 8176 6650 8163 6680 C 8106 6807 7967 7219 7936 7350 C 7885 7567 7843 7844 7800 8250 C 7788 8362 7767 8497 7735 8670 C 7726 8717 7702 8854 7680 8975 C 7633 9240 7594 9428 7540 9655 C 7484 9890 7446 10065 7421 10200 C 7364 10504 7335 10615 7274 10764 C 7192 10963 7012 11258 6888 11395 C 6820 11470 6742 11573 6677 11673 C 6625 11754 6431 11949 6328 12025 C 6129 12170 6043 12210 5735 12296 C 5607 12331 5602 12332 5370 12337 C 5094 12343 5027 12336 4927 12286 C 4888 12266 4855 12252 4853 12254 C 4845 12262 4994 12389 5039 12414 C 5144 12471 5278 12482 5465 12450 Z M 4870 12321 C 4870 12314 4802 12253 4766 12228 C 4750 12216 4778 12201 4803 12208 C 4814 12211 4853 12228 4889 12245 C 5013 12305 5013 12305 5300 12305 L 5565 12304 L 5700 12271 C 6057 12182 6233 12086 6473 11851 C 6573 11754 6636 11678 6680 11605 C 6707 11559 6705 11560 6611 11640 C 6412 11806 6164 11963 5930 12071 C 5758 12150 5488 12242 5377 12260 C 5270 12278 5110 12268 4990 12236 C 4799 12186 4778 12179 4719 12150 C 4687 12134 4660 12122 4660 12124 C 4660 12141 4698 12194 4737 12231 C 4826 12316 4870 12346 4870 12321 Z M 4727 12262 C 4677 12208 4590 12055 4590 12018 C 4590 12012 4582 11998 4573 11987 C 4542 11953 4552 11781 4590 11697 C 4606 11660 4620 11624 4620 11616 C 4620 11609 4627 11589 4635 11574 C 4652 11541 4654 11520 4640 11520 C 4635 11520 4627 11532 4624 11548 C 4620 11563 4597 11618 4572 11670 C 4534 11747 4526 11775 4525 11822 C 4525 11853 4522 11881 4518 11885 C 4510 11894 4519 11951 4531 11965 C 4536 11970 4540 11997 4540 12025 C 4540 12126 4687 12320 4764 12320 C 4779 12320 4770 12306 4727 12262 Z M 4550 12254 C 4590 12238 4599 12227 4580 12215 C 4574 12211 4556 12185 4540 12157 L 4511 12105 L 4451 12104 C 4388 12104 4377 12099 4104 11969 C 3933 11888 3773 11746 3701 11610 C 3668 11549 3577 11321 3533 11190 C 3471 11007 3432 10915 3377 10820 C 3342 10760 3289 10654 3211 10490 C 3194 10454 3165 10400 3146 10370 C 3127 10340 3095 10266 3075 10205 C 3055 10145 3019 10050 2995 9995 C 2947 9884 2927 9821 2904 9710 C 2873 9567 2869 9513 2860 9120 C 2851 8731 2828 8247 2811 8120 C 2807 8084 2791 8017 2778 7970 C 2764 7923 2750 7874 2747 7860 C 2738 7818 2665 7621 2622 7525 C 2600 7476 2562 7389 2537 7333 C 2493 7235 2420 7094 2375 7020 C 2363 7001 2329 6940 2300 6885 C 2271 6830 2240 6774 2230 6760 C 2221 6746 2204 6713 2193 6685 C 2181 6658 2115 6520 2047 6379 C 1978 6238 1919 6112 1915 6099 C 1911 6086 1894 6048 1877 6015 C 1831 5923 1744 5656 1726 5550 C 1700 5398 1694 5063 1714 4820 C 1723 4707 1733 4609 1736 4601 C 1744 4576 1753 4405 1745 4412 C 1741 4416 1737 4431 1735 4447 C 1730 4487 1725 4515 1707 4595 C 1698 4634 1683 4708 1674 4760 C 1665 4812 1642 4934 1623 5030 C 1592 5188 1589 5217 1594 5330 C 1596 5399 1602 5472 1605 5494 C 1616 5552 1595 5531 1574 5462 C 1546 5373 1552 5194 1589 4995 C 1606 4907 1631 4772 1645 4695 C 1667 4577 1702 4442 1740 4330 C 1755 4287 1777 4087 1786 3915 C 1789 3866 1795 3796 1800 3760 C 1806 3724 1819 3621 1830 3530 C 1852 3340 1871 3240 1884 3240 C 1894 3240 1889 3300 1866 3445 C 1850 3552 1827 3757 1809 3960 C 1803 4029 1795 4108 1793 4135 C 1787 4198 1796 4190 1816 4115 C 1824 4082 1834 4051 1839 4046 C 1843 4040 1847 4022 1848 4006 C 1849 3990 1855 3971 1861 3964 C 1867 3957 1869 3947 1866 3942 C 1861 3933 1875 3824 1886 3787 C 1889 3778 1896 3772 1901 3776 C 1906 3779 1908 3786 1904 3791 C 1895 3807 1891 3870 1900 3865 C 1905 3862 1912 3838 1915 3812 C 1919 3786 1924 3754 1926 3740 C 1928 3726 1933 3686 1936 3650 C 1939 3614 1948 3542 1955 3490 C 1975 3356 2000 3141 2000 3101 C 2000 3082 2004 3041 2010 3011 C 2026 2920 2053 2661 2056 2574 C 2059 2457 2033 2256 2010 2225 C 2006 2220 2000 2195 1996 2170 C 1990 2129 1974 2083 1897 1879 C 1841 1731 1762 1640 1636 1580 C 1479 1506 1477 1506 1395 1574 L 1356 1607 L 1396 1628 C 1486 1674 1525 1724 1589 1877 C 1695 2129 1772 2394 1791 2566 C 1803 2689 1800 2927 1786 2950 C 1780 2958 1775 2977 1773 2994 C 1771 3010 1765 3028 1760 3035 C 1755 3042 1753 3049 1756 3052 C 1759 3056 1752 3077 1740 3101 C 1728 3124 1710 3166 1700 3194 C 1685 3238 1661 3298 1620 3398 C 1615 3410 1604 3420 1596 3420 C 1584 3420 1586 3410 1604 3368 C 1617 3339 1630 3303 1634 3288 C 1637 3273 1646 3255 1653 3248 C 1666 3234 1672 3200 1660 3200 C 1647 3200 1593 3342 1560 3464 C 1548 3507 1514 3601 1484 3671 C 1454 3742 1430 3803 1430 3807 C 1430 3810 1406 3875 1376 3949 C 1317 4097 1293 4177 1286 4256 C 1284 4284 1276 4327 1268 4351 C 1259 4383 1255 4462 1256 4640 C 1257 4913 1271 5105 1301 5226 C 1311 5271 1320 5320 1320 5336 C 1320 5362 1439 5612 1481 5675 C 1492 5692 1516 5730 1534 5760 C 1552 5790 1597 5864 1634 5924 C 1788 6174 1939 6458 2002 6615 C 2024 6670 2063 6758 2090 6811 C 2116 6864 2152 6947 2170 6996 C 2188 7045 2209 7097 2216 7111 C 2226 7131 2227 7150 2219 7191 C 2201 7291 2181 7533 2175 7750 C 2169 7939 2171 7983 2189 8115 C 2217 8312 2229 8379 2240 8415 C 2257 8466 2290 8630 2310 8760 C 2342 8964 2399 9245 2431 9360 C 2442 9401 2458 9458 2465 9485 C 2473 9513 2515 9684 2559 9865 C 2639 10195 2685 10350 2742 10490 C 2759 10531 2797 10630 2826 10709 C 2922 10965 3051 11185 3216 11370 C 3253 11411 3324 11497 3375 11560 C 3534 11756 3708 11923 3843 12008 C 3876 12028 3929 12063 3963 12085 C 4020 12122 4094 12158 4231 12216 C 4359 12270 4475 12284 4550 12254 Z M 5332 12230 C 5486 12212 5773 12108 6055 11967 C 6361 11814 6776 11491 6839 11356 C 6851 11329 6878 11280 6899 11246 C 6920 11213 6951 11160 6967 11130 C 6984 11100 7012 11051 7029 11021 C 7127 10856 7249 10560 7315 10327 C 7334 10258 7355 10188 7361 10173 C 7383 10118 7421 9972 7459 9800 C 7496 9636 7516 9521 7605 8960 C 7625 8836 7652 8681 7666 8615 C 7679 8549 7699 8451 7710 8397 C 7720 8343 7732 8295 7735 8289 C 7748 8269 7784 8011 7836 7565 C 7875 7222 7882 7178 7941 6877 C 7980 6675 7987 6602 7957 6712 C 7897 6935 7827 7165 7749 7400 C 7618 7797 7595 7872 7535 8095 C 7506 8205 7462 8365 7437 8450 C 7384 8632 7336 8840 7320 8960 C 7306 9059 7296 9078 7269 9054 C 7258 9044 7250 9025 7250 9011 C 7250 8996 7246 8990 7241 8995 C 7229 9009 7150 9198 7042 9470 C 6987 9609 6635 10323 6578 10411 C 6558 10442 6499 10525 6445 10595 C 6392 10665 6308 10781 6258 10854 C 6127 11042 6059 11131 5954 11250 C 5739 11496 5616 11571 5210 11701 C 5078 11744 5072 11745 4940 11745 C 4792 11745 4733 11731 4690 11685 C 4669 11663 4668 11654 4674 11598 C 4682 11517 4665 11532 4641 11626 C 4631 11664 4618 11705 4612 11717 C 4590 11757 4607 11975 4635 12030 C 4667 12092 4775 12149 4948 12194 C 5115 12238 5196 12246 5332 12230 Z M 4490 12047 C 4490 12028 4475 12017 4402 11982 C 4160 11866 3840 11650 3840 11602 C 3840 11578 3770 11457 3666 11302 C 3569 11157 3549 11144 3595 11255 C 3609 11288 3643 11371 3670 11440 C 3771 11695 3893 11831 4120 11945 C 4352 12061 4490 12099 4490 12047 Z M 4480 11936 C 4480 11893 4480 11893 4418 11862 C 4340 11824 4260 11754 4179 11652 C 4123 11582 4005 11446 3862 11288 C 3733 11145 3573 10856 3437 10520 C 3396 10418 3323 10252 3275 10150 C 3227 10048 3174 9929 3158 9885 C 3124 9793 3070 9596 3070 9563 C 3070 9550 3066 9540 3061 9540 C 3041 9540 3086 9755 3179 10110 C 3202 10195 3229 10303 3240 10351 C 3273 10495 3317 10606 3443 10850 C 3531 11022 3595 11131 3681 11256 C 3746 11351 3822 11472 3850 11526 C 3914 11650 3958 11693 4121 11789 C 4189 11830 4265 11875 4290 11891 C 4337 11920 4460 11980 4473 11980 C 4477 11980 4480 11960 4480 11936 Z M 4470 11830 C 4470 11819 4490 11770 4515 11721 C 4561 11629 4562 11617 4524 11626 C 4465 11641 4303 11513 4202 11370 C 4176 11334 4122 11262 4080 11210 C 4039 11158 3996 11104 3985 11089 C 3974 11075 3937 11026 3902 10980 C 3867 10934 3815 10870 3786 10836 C 3683 10716 3529 10487 3543 10474 C 3545 10471 3569 10503 3594 10544 C 3642 10621 3693 10684 3814 10819 C 3851 10861 3919 10942 3964 10999 C 4008 11056 4074 11139 4110 11184 C 4146 11228 4213 11314 4259 11373 C 4349 11490 4433 11564 4492 11580 C 4524 11589 4532 11588 4554 11567 L 4580 11543 L 4551 11503 C 4535 11481 4500 11447 4474 11427 C 4400 11373 4067 11029 3998 10937 C 3980 10913 3911 10826 3845 10745 C 3593 10434 3552 10378 3487 10253 C 3417 10119 3313 9795 3295 9655 C 3291 9628 3271 9517 3249 9410 C 3228 9302 3204 9149 3195 9068 C 3170 8811 3177 8392 3214 8058 C 3227 7942 3236 7835 3255 7550 C 3257 7525 3259 7504 3260 7503 C 3262 7501 3264 7488 3265 7473 C 3266 7457 3270 7432 3273 7415 C 3325 7118 3336 7019 3345 6816 C 3348 6751 3354 6692 3357 6687 C 3361 6681 3367 6595 3371 6496 C 3378 6342 3376 6290 3359 6149 C 3348 6057 3340 5965 3342 5944 C 3345 5906 3346 5905 3357 5930 C 3391 6000 3419 6436 3400 6593 C 3395 6638 3383 6754 3375 6850 C 3359 7043 3341 7188 3309 7379 C 3297 7448 3286 7528 3284 7555 C 3282 7583 3275 7648 3270 7700 C 3265 7752 3258 7845 3255 7905 C 3252 7966 3243 8071 3235 8140 C 3196 8476 3197 8998 3236 9201 C 3245 9247 3265 9350 3280 9430 C 3296 9510 3312 9598 3315 9625 C 3327 9713 3388 9946 3431 10062 C 3506 10268 3559 10353 3807 10661 C 3905 10783 3999 10901 4016 10924 C 4064 10987 4211 11141 4371 11294 C 4450 11370 4534 11452 4557 11476 L 4598 11520 L 4675 11404 C 4717 11340 4754 11282 4756 11275 C 4769 11243 4527 10969 4406 10877 C 4184 10709 4146 10682 4076 10646 C 3967 10588 3900 10520 3857 10424 C 3838 10380 3803 10309 3779 10265 C 3706 10134 3634 9980 3605 9895 C 3589 9851 3561 9779 3542 9735 C 3482 9596 3429 9457 3433 9447 C 3435 9441 3451 9475 3469 9521 C 3590 9826 3690 10038 3814 10254 C 3866 10344 3920 10440 3933 10466 C 3967 10532 4009 10570 4110 10626 C 4332 10748 4547 10933 4720 11153 C 4753 11196 4785 11228 4790 11225 C 4818 11208 4801 11056 4760 10964 C 4692 10809 4519 10616 4270 10416 C 4179 10343 4076 10257 4040 10224 C 4004 10192 3939 10136 3896 10100 C 3853 10065 3802 10013 3784 9985 C 3765 9958 3730 9908 3705 9875 C 3575 9701 3510 9592 3510 9546 C 3510 9524 3502 9481 3441 9200 C 3424 9121 3407 9007 3366 8712 C 3363 8694 3365 8682 3369 8684 C 3373 8687 3383 8731 3390 8782 C 3397 8833 3406 8884 3411 8895 C 3420 8915 3420 8894 3400 8605 C 3396 8534 3394 8408 3396 8325 C 3415 7689 3418 7623 3438 7525 C 3449 7470 3468 7369 3480 7300 C 3492 7231 3504 7168 3507 7160 C 3510 7152 3514 7135 3516 7123 C 3518 7110 3522 7090 3524 7078 C 3526 7065 3530 7048 3533 7040 C 3536 7032 3553 6971 3569 6905 C 3618 6714 3639 6636 3649 6619 C 3655 6608 3655 6599 3648 6592 C 3639 6583 3641 6575 3654 6561 C 3676 6537 3672 6415 3646 6275 C 3638 6231 3626 6098 3620 5980 C 3594 5442 3585 5386 3469 5025 C 3391 4782 3362 4714 3136 4264 C 2873 3739 2814 3603 2775 3430 C 2765 3389 2751 3335 2744 3310 C 2717 3216 2680 3051 2663 2950 C 2638 2789 2641 2448 2669 2265 C 2681 2188 2693 2111 2696 2093 C 2698 2075 2707 2028 2716 1988 C 2725 1948 2736 1897 2740 1875 C 2751 1814 2807 1600 2823 1555 C 2932 1255 3019 1091 3118 998 C 3166 953 3192 894 3194 826 C 3195 797 3192 795 3110 768 C 2958 717 2826 695 2744 707 C 2538 737 2322 934 2219 1187 C 2169 1310 2159 1378 2162 1580 L 2165 1745 L 2198 1645 C 2236 1531 2289 1415 2318 1384 C 2329 1373 2341 1353 2345 1341 C 2359 1297 2534 1045 2584 995 C 2645 937 2767 859 2837 835 C 2922 805 3112 817 3134 853 C 3143 868 3140 876 3114 898 C 3096 913 3058 946 3029 971 C 2967 1024 2840 1207 2786 1322 C 2766 1364 2750 1401 2750 1404 C 2750 1407 2739 1434 2725 1464 C 2711 1494 2700 1521 2700 1524 C 2700 1527 2691 1555 2679 1586 C 2664 1624 2655 1639 2648 1632 C 2637 1621 2664 1530 2694 1470 C 2702 1456 2711 1432 2714 1415 C 2723 1380 2813 1197 2856 1129 C 2928 1013 2961 972 3018 925 C 3086 870 3085 863 3001 853 C 2891 840 2697 922 2616 1015 C 2552 1090 2509 1148 2486 1193 C 2475 1213 2463 1230 2459 1230 C 2454 1230 2439 1254 2424 1283 C 2410 1311 2387 1350 2373 1368 C 2360 1385 2352 1400 2355 1400 C 2359 1400 2353 1412 2342 1428 C 2315 1467 2230 1650 2230 1670 C 2230 1676 2224 1694 2216 1708 C 2178 1779 2170 1831 2170 2024 C 2169 2129 2165 2247 2160 2285 C 2143 2408 2135 2880 2149 2951 C 2175 3083 2326 3586 2342 3597 C 2349 3601 2351 3594 2347 3579 C 2324 3484 2333 3116 2360 3046 C 2379 2995 2394 3029 2380 3092 C 2355 3205 2361 3729 2388 3763 C 2393 3769 2408 3807 2420 3845 C 2432 3884 2446 3920 2450 3925 C 2454 3931 2463 3951 2468 3970 C 2479 4007 2537 4172 2596 4335 C 2615 4390 2647 4480 2666 4535 C 2778 4869 2856 5075 2924 5222 C 2938 5253 2950 5281 2950 5284 C 2950 5287 2983 5363 3024 5452 C 3215 5874 3278 6034 3321 6204 C 3343 6291 3343 6294 3326 6414 C 3317 6480 3305 6576 3300 6625 C 3295 6675 3283 6762 3274 6820 C 3265 6878 3258 6936 3259 6950 C 3260 6964 3254 7009 3246 7050 C 3177 7405 3171 7462 3138 8005 C 3117 8352 3124 9028 3151 9200 C 3161 9260 3189 9485 3210 9660 C 3229 9822 3252 9903 3312 10025 C 3333 10069 3344 10097 3336 10086 C 3310 10054 3242 9917 3232 9875 C 3208 9782 3164 9533 3155 9440 C 3153 9410 3146 9354 3140 9315 C 3096 9005 3083 8469 3108 7968 C 3114 7848 3121 7747 3124 7742 C 3127 7737 3132 7679 3135 7614 C 3143 7470 3171 7260 3210 7055 C 3216 7028 3222 6983 3225 6955 C 3227 6928 3234 6873 3240 6833 C 3245 6794 3247 6746 3245 6728 C 3241 6703 3242 6700 3249 6715 C 3257 6734 3258 6734 3263 6710 C 3273 6668 3293 6409 3292 6340 C 3291 6194 3243 6020 3134 5768 C 3099 5687 3070 5618 3070 5615 C 3070 5612 3038 5539 2999 5452 C 2960 5366 2913 5261 2895 5220 C 2862 5147 2788 4962 2755 4870 C 2709 4743 2666 4617 2645 4550 C 2632 4509 2604 4426 2582 4365 C 2488 4103 2437 3961 2414 3902 C 2401 3868 2390 3831 2390 3820 C 2390 3810 2387 3799 2383 3797 C 2369 3788 2399 4135 2421 4250 C 2463 4467 2514 4671 2562 4810 C 2578 4857 2597 4919 2606 4949 C 2626 5023 2664 5119 2715 5225 C 2773 5344 2812 5432 2816 5448 C 2821 5473 2894 5621 2906 5631 C 2913 5636 2921 5658 2925 5679 C 2928 5700 2942 5728 2954 5741 C 2986 5776 3004 5810 2990 5810 C 2983 5810 2987 5825 2999 5844 C 3021 5879 3026 5900 3011 5900 C 3006 5900 2986 5865 2965 5823 C 2944 5780 2897 5682 2859 5605 C 2791 5464 2700 5256 2700 5241 C 2700 5236 2682 5193 2659 5145 C 2607 5032 2581 4965 2571 4915 C 2566 4893 2546 4830 2527 4775 C 2470 4610 2469 4606 2415 4360 C 2391 4253 2363 4023 2354 3865 C 2345 3708 2332 3647 2277 3495 C 2246 3409 2180 3184 2180 3162 C 2179 3152 2172 3134 2164 3120 C 2150 3096 2149 3096 2153 3118 C 2156 3130 2154 3140 2149 3140 C 2144 3140 2140 3113 2140 3080 C 2140 3047 2137 3020 2133 3020 C 2128 3020 2125 3044 2125 3073 C 2125 3200 2094 3367 2035 3560 C 2026 3590 2015 3629 2010 3645 C 2005 3662 1990 3707 1976 3745 C 1960 3789 1949 3846 1946 3900 C 1943 3947 1933 4032 1924 4090 C 1915 4148 1906 4206 1904 4220 C 1899 4250 1899 4531 1904 4616 C 1911 4743 1945 4940 1970 4995 C 1975 5006 1986 5040 1996 5070 C 2005 5100 2021 5142 2032 5163 C 2064 5228 2073 5255 2057 5241 C 2038 5226 1973 5069 1950 4984 L 1932 4915 L 1936 5005 C 1941 5092 1955 5196 1986 5384 C 2017 5571 2096 5765 2276 6096 C 2404 6333 2487 6523 2560 6745 C 2589 6833 2618 6924 2626 6947 C 2644 7003 2720 7301 2720 7314 C 2719 7340 2690 7268 2676 7204 C 2632 7011 2533 6702 2455 6515 C 2373 6322 2346 6266 2266 6125 C 2085 5805 1965 5499 1940 5298 C 1934 5247 1925 5189 1920 5170 C 1915 5151 1906 5059 1900 4965 C 1894 4872 1885 4761 1880 4720 C 1866 4613 1859 4462 1857 4250 C 1856 4149 1853 4079 1849 4095 C 1845 4112 1831 4157 1817 4195 C 1795 4257 1776 4440 1778 4570 C 1778 4578 1771 4650 1762 4730 C 1753 4817 1747 4963 1747 5095 C 1747 5568 1790 5739 2043 6260 C 2089 6356 2149 6482 2175 6540 C 2230 6661 2326 6847 2415 7005 C 2565 7269 2685 7535 2767 7780 C 2863 8069 2876 8209 2900 9150 C 2911 9589 2939 9758 3038 9990 C 3060 10042 3094 10133 3113 10192 C 3133 10250 3163 10324 3181 10355 C 3213 10412 3231 10423 3212 10373 C 3206 10358 3189 10293 3175 10230 C 3160 10167 3139 10084 3127 10045 C 3101 9955 3073 9835 3054 9740 C 3040 9669 3031 9605 3010 9430 C 3005 9389 2994 9333 2985 9305 C 2941 9164 2930 9058 2930 8730 C 2930 8491 2926 8392 2914 8320 C 2906 8268 2897 8209 2894 8190 C 2892 8171 2883 8119 2875 8075 C 2868 8031 2859 7977 2856 7955 L 2851 7915 L 2865 7945 C 2873 7962 2879 7986 2879 8000 C 2880 8014 2886 8045 2894 8070 C 2902 8095 2913 8131 2918 8150 C 2927 8181 2928 8177 2929 8110 C 2930 8069 2935 7970 2940 7890 C 2961 7600 2955 7376 2921 7180 C 2905 7084 2886 6990 2880 6973 C 2873 6955 2870 6935 2873 6928 C 2875 6921 2885 6942 2894 6975 C 2903 7008 2917 7051 2925 7070 C 2940 7105 2964 7241 2980 7375 C 2990 7466 2984 7842 2969 7995 C 2957 8125 2962 8410 2980 8550 C 2985 8597 2992 8705 2995 8790 C 2998 8875 3004 8988 3009 9040 C 3015 9092 3024 9185 3030 9245 C 3036 9311 3052 9391 3069 9445 C 3085 9495 3101 9551 3105 9570 C 3144 9774 3182 9882 3298 10120 C 3342 10211 3415 10377 3460 10490 C 3547 10707 3576 10769 3673 10945 C 3779 11138 3823 11197 4060 11460 C 4107 11512 4171 11587 4202 11625 C 4274 11714 4343 11781 4400 11819 C 4454 11854 4470 11857 4470 11830 Z M 5140 11682 C 5187 11665 5253 11645 5287 11636 C 5528 11576 5745 11432 5938 11207 C 6016 11115 6072 11041 6292 10739 C 6327 10691 6394 10601 6441 10539 C 6567 10372 6573 10360 6810 9875 C 6894 9705 6982 9513 7007 9450 C 7116 9171 7145 9101 7181 9026 C 7248 8890 7260 8837 7260 8676 C 7261 8540 7265 8494 7290 8330 C 7296 8289 7301 8204 7301 8143 C 7301 8081 7304 8030 7309 8030 C 7314 8030 7316 8022 7314 8013 C 7309 7990 7299 7425 7297 7055 C 7296 6760 7307 6616 7355 6291 C 7381 6118 7482 5759 7546 5615 C 7553 5599 7580 5538 7605 5480 C 7747 5157 8006 4719 8134 4587 C 8186 4533 8304 4466 8455 4405 C 8547 4367 8547 4367 8501 4337 C 8468 4315 8449 4310 8400 4310 C 8316 4310 8273 4340 8102 4516 C 7963 4660 7892 4755 7726 5020 C 7633 5168 7430 5611 7329 5886 C 7208 6217 7180 6332 7160 6590 C 7154 6664 7145 6779 7139 6845 C 7134 6911 7131 7100 7132 7265 C 7137 7867 7132 7966 7080 8190 C 7064 8259 7044 8369 7036 8435 C 7027 8501 7015 8587 7010 8625 C 7004 8664 6993 8776 6985 8875 C 6959 9173 6943 9253 6850 9536 C 6784 9737 6640 10091 6484 10435 C 6403 10615 6136 10880 5860 11054 C 5680 11169 5482 11276 5375 11318 C 5348 11329 5294 11352 5257 11369 C 5104 11439 5065 11453 5013 11453 C 4942 11453 4880 11412 4834 11334 C 4824 11316 4822 11316 4797 11333 C 4760 11357 4750 11380 4725 11496 C 4699 11615 4706 11653 4756 11682 C 4835 11728 5007 11728 5140 11682 Z M 5106 11386 C 5548 11209 5840 11043 6120 10811 C 6299 10663 6401 10534 6469 10370 C 6495 10308 6538 10210 6600 10070 C 6781 9665 6897 9289 6929 9000 C 6950 8823 6951 8810 6947 8810 C 6945 8810 6930 8840 6915 8878 C 6882 8956 6871 8970 6841 8973 C 6828 8974 6821 8979 6825 8988 C 6827 8995 6793 9114 6749 9253 C 6620 9653 6425 10034 6250 10224 C 6214 10263 6160 10328 6131 10368 C 6101 10407 6073 10440 6069 10440 C 6063 10440 5997 10525 5909 10645 C 5815 10775 5787 10797 5676 10831 C 5620 10848 5521 10882 5455 10907 C 5344 10950 5273 10975 5145 11017 C 5118 11026 5077 11044 5054 11056 C 4999 11088 4890 11188 4890 11207 C 4890 11215 4880 11230 4868 11240 C 4845 11258 4845 11259 4863 11292 C 4924 11406 4991 11432 5106 11386 Z M 6970 11233 C 7051 11118 7184 10880 7236 10756 C 7274 10664 7315 10531 7345 10395 C 7358 10337 7332 10384 7310 10459 C 7237 10708 7136 10917 6918 11278 C 6881 11339 6915 11309 6970 11233 Z M 5001 11032 C 5025 11011 5263 10924 5569 10824 C 5643 10800 5721 10769 5742 10755 C 5778 10731 5964 10510 5955 10502 C 5953 10499 5923 10522 5890 10553 C 5857 10584 5791 10636 5744 10669 C 5652 10733 5669 10727 5166 10887 C 5056 10922 4980 10951 4968 10964 C 4949 10984 4860 11144 4860 11157 C 4860 11161 4886 11140 4918 11109 C 4949 11079 4987 11044 5001 11032 Z M 4890 11012 C 4929 10928 4953 10902 5004 10890 C 5061 10876 5317 10797 5482 10743 C 5637 10693 5721 10640 5911 10475 C 6216 10210 6317 10072 6403 9805 C 6439 9693 6470 9578 6491 9480 C 6498 9450 6509 9404 6516 9378 C 6530 9326 6524 9320 6485 9346 C 6467 9358 6456 9359 6447 9352 C 6439 9345 6430 9345 6418 9354 C 6393 9372 6276 9358 6205 9328 C 6172 9314 6057 9264 5950 9217 C 5843 9171 5726 9125 5690 9116 C 5577 9088 5527 9065 5493 9023 C 5471 8997 5464 8980 5470 8970 C 5477 8959 5482 8959 5493 8968 C 5501 8975 5515 8977 5524 8974 C 5534 8970 5549 8975 5559 8984 C 5571 8995 5602 9003 5651 9006 C 5692 9009 5777 9022 5840 9035 C 6001 9068 6122 9079 6365 9083 L 6576 9087 L 6603 8951 C 6644 8741 6679 8488 6705 8197 C 6726 7961 6724 7833 6699 7735 C 6687 7691 6668 7610 6655 7555 C 6614 7380 6580 7247 6556 7170 C 6529 7087 6460 6795 6460 6764 C 6459 6711 6160 6568 5895 6496 C 5671 6434 5596 6407 5522 6357 C 5401 6276 5305 6250 5130 6251 C 4979 6251 4947 6259 4873 6312 C 4847 6332 4778 6371 4720 6400 C 4662 6429 4570 6480 4516 6512 C 4461 6545 4376 6594 4326 6620 C 3993 6793 3916 6848 3761 7021 C 3694 7096 3651 7155 3618 7216 C 3563 7321 3493 7542 3479 7655 C 3473 7699 3465 7767 3460 7805 C 3447 7902 3448 8478 3461 8685 C 3466 8779 3473 8887 3475 8925 C 3477 8964 3483 9006 3488 9020 C 3493 9034 3503 9083 3509 9130 C 3529 9267 3541 9295 3568 9268 C 3577 9259 3584 9261 3600 9275 C 3614 9288 3623 9290 3633 9282 C 3656 9262 3815 9222 3915 9210 C 3970 9204 4049 9192 4090 9184 C 4131 9176 4179 9170 4196 9170 C 4213 9170 4265 9150 4313 9126 C 4370 9097 4408 9084 4424 9087 C 4440 9090 4459 9085 4476 9071 C 4491 9059 4508 9050 4515 9050 C 4521 9050 4537 9038 4549 9024 C 4570 9000 4573 8999 4588 9013 C 4602 9027 4602 9031 4588 9052 C 4560 9093 4514 9140 4501 9140 C 4494 9140 4470 9154 4449 9171 C 4428 9188 4406 9199 4400 9195 C 4395 9192 4351 9216 4303 9248 C 4254 9280 4175 9328 4125 9355 C 4002 9422 3932 9467 3917 9490 C 3911 9501 3900 9510 3893 9510 C 3886 9510 3880 9517 3880 9526 C 3880 9537 3874 9541 3862 9538 C 3852 9535 3839 9539 3832 9547 C 3809 9571 3791 9560 3680 9454 C 3569 9346 3549 9338 3596 9420 C 3611 9445 3645 9506 3672 9555 C 3740 9675 3792 9743 3924 9880 C 3985 9943 4077 10041 4129 10098 C 4181 10155 4293 10261 4378 10333 C 4491 10429 4554 10492 4611 10565 C 4734 10721 4830 10929 4830 11040 C 4830 11112 4847 11104 4890 11012 Z M 4700 10758 C 4643 10648 4498 10484 4332 10342 C 4263 10283 4184 10206 4155 10170 C 4126 10134 4033 10033 3948 9945 C 3761 9753 3636 9591 3558 9440 C 3542 9410 3531 9394 3534 9405 C 3537 9416 3544 9452 3550 9485 C 3564 9567 3613 9665 3705 9795 C 3748 9856 3801 9931 3822 9962 C 3865 10025 4081 10219 4320 10409 C 4505 10556 4631 10678 4676 10752 C 4717 10819 4734 10823 4700 10758 Z M 6529 9685 C 6573 9594 6630 9460 6656 9387 C 6682 9315 6706 9251 6711 9246 C 6723 9233 6723 9200 6711 9200 C 6706 9200 6686 9220 6666 9245 C 6614 9308 6600 9321 6589 9315 C 6585 9312 6578 9319 6575 9332 C 6572 9345 6554 9423 6535 9505 C 6517 9588 6487 9697 6471 9748 C 6421 9900 6430 9890 6529 9685 Z M 3830 9520 C 3830 9515 3821 9510 3811 9510 C 3800 9510 3788 9506 3785 9500 C 3782 9495 3773 9490 3767 9490 C 3750 9491 3799 9530 3816 9530 C 3824 9530 3830 9526 3830 9520 Z M 3740 9460 C 3726 9450 3713 9443 3711 9446 C 3705 9451 3742 9479 3755 9479 C 3761 9480 3754 9471 3740 9460 Z M 3820 9465 C 3813 9457 3792 9441 3774 9429 C 3755 9418 3742 9405 3744 9401 C 3747 9397 3740 9394 3729 9394 C 3698 9394 3707 9407 3763 9444 C 3819 9481 3840 9489 3820 9465 Z M 3805 9413 C 3800 9398 3801 9397 3811 9408 C 3818 9414 3828 9420 3833 9420 C 3837 9420 3838 9414 3834 9408 C 3829 9399 3832 9400 3843 9409 C 3858 9421 3863 9420 3883 9401 C 3896 9390 3909 9380 3913 9380 C 3917 9380 3928 9372 3938 9363 C 3948 9353 3965 9340 3976 9334 C 4016 9310 3964 9299 3873 9311 C 3791 9322 3732 9340 3726 9356 C 3723 9365 3726 9367 3738 9363 C 3747 9360 3752 9361 3747 9365 C 3743 9370 3752 9380 3767 9387 C 3783 9394 3787 9398 3777 9395 C 3767 9392 3762 9394 3765 9400 C 3768 9406 3778 9410 3786 9410 C 3794 9410 3800 9415 3800 9420 C 3800 9426 3803 9430 3806 9430 C 3809 9430 3809 9422 3805 9413 Z M 3535 9371 C 3538 9366 3536 9359 3530 9355 C 3525 9352 3520 9356 3520 9364 C 3520 9382 3526 9385 3535 9371 Z M 3950 9365 C 3950 9362 3948 9360 3945 9360 C 3942 9360 3940 9362 3940 9365 C 3940 9368 3942 9370 3945 9370 C 3948 9370 3950 9368 3950 9365 Z M 6538 9246 C 6555 9237 6570 9226 6571 9222 C 6571 9218 6573 9208 6575 9198 C 6579 9175 6571 9174 6331 9171 L 6117 9168 L 6143 9195 C 6188 9244 6288 9271 6405 9267 C 6473 9264 6515 9258 6538 9246 Z M 2985 9061 C 2981 9030 2975 9011 2973 9018 C 2970 9026 2971 9062 2976 9098 C 2980 9135 2986 9154 2988 9141 C 2990 9127 2989 9091 2985 9061 Z M 6783 9008 C 6804 8940 6845 8784 6875 8660 C 6935 8418 6939 8405 6944 8411 C 6949 8416 6885 8740 6870 8786 C 6863 8805 6860 8824 6863 8827 C 6866 8830 6865 8842 6861 8854 C 6828 8942 6846 8957 6883 8873 C 6949 8722 6967 8519 6948 8135 C 6921 7583 6913 7493 6850 7020 C 6786 6534 6775 5962 6825 5715 C 6858 5555 6937 5361 7053 5155 C 7251 4804 7343 4662 7458 4532 C 7530 4450 7565 4428 7700 4372 C 7753 4351 7847 4300 7910 4260 C 8049 4170 8102 4159 8151 4206 C 8167 4221 8180 4240 8180 4247 C 8180 4260 8288 4257 8330 4243 C 8344 4239 8275 4209 8170 4174 C 8026 4126 7591 4299 7349 4501 C 7255 4579 7128 4652 7095 4646 C 7069 4641 7055 4648 7002 4690 C 6968 4718 6940 4747 6940 4755 C 6940 4762 6921 4781 6899 4797 C 6874 4813 6845 4847 6827 4878 C 6790 4945 6699 5248 6649 5470 C 6621 5597 6611 5874 6630 6012 C 6635 6052 6647 6164 6655 6260 C 6706 6832 6715 6930 6730 7055 C 6772 7420 6788 7930 6762 8145 C 6756 8200 6748 8277 6745 8315 C 6721 8599 6658 9003 6629 9061 C 6625 9069 6624 9081 6628 9087 C 6634 9095 6709 9123 6741 9129 C 6744 9130 6763 9075 6783 9008 Z M 7637 8998 C 7634 8990 7631 8993 7631 9004 C 7630 9015 7633 9021 7636 9017 C 7639 9014 7640 9005 7637 8998 Z M 2967 8958 C 2964 8950 2961 8953 2961 8964 C 2960 8975 2963 8981 2966 8977 C 2969 8974 2970 8965 2967 8958 Z M 7295 8893 L 7299 8855 L 7285 8885 C 7268 8922 7264 8976 7281 8948 C 7286 8938 7293 8913 7295 8893 Z M 7650 8945 C 7650 8942 7648 8940 7645 8940 C 7642 8940 7640 8942 7640 8945 C 7640 8948 7642 8950 7645 8950 C 7648 8950 7650 8948 7650 8945 Z M 2967 8768 C 2965 8739 2964 8762 2964 8820 C 2964 8878 2965 8901 2967 8873 C 2969 8844 2969 8796 2967 8768 Z M 7657 8903 C 7653 8900 7650 8903 7650 8910 C 7650 8917 7653 8920 7657 8917 C 7660 8913 7660 8907 7657 8903 Z M 7667 8818 C 7664 8811 7662 8816 7662 8830 C 7662 8844 7664 8849 7667 8843 C 7669 8836 7669 8824 7667 8818 Z M 8161 8696 C 8153 8636 8152 8637 8152 8735 C 8152 8816 8154 8828 8161 8796 C 8166 8774 8167 8733 8161 8696 Z M 7724 8560 C 7728 8540 7727 8530 7722 8535 C 7711 8547 7670 8750 7671 8782 C 7672 8802 7705 8663 7724 8560 Z M 7350 8571 C 7419 8331 7451 8074 7490 7450 C 7505 7206 7531 6973 7545 6951 C 7548 6945 7555 6901 7561 6853 C 7566 6805 7576 6761 7582 6755 C 7589 6748 7591 6762 7586 6805 C 7582 6838 7574 6903 7569 6950 C 7564 6997 7558 7049 7556 7065 C 7554 7082 7543 7248 7531 7435 C 7519 7622 7501 7864 7490 7972 C 7467 8203 7468 8183 7480 8175 C 7486 8172 7490 8158 7490 8145 C 7490 8083 7597 7726 7775 7195 C 7889 6853 8059 6223 8095 6005 C 8099 5983 8122 5877 8147 5770 C 8172 5663 8198 5548 8206 5515 C 8310 5053 8412 4749 8537 4526 C 8575 4460 8575 4440 8537 4495 C 8521 4518 8483 4548 8434 4576 C 8335 4632 8303 4663 8228 4775 C 8093 4976 7984 5253 7825 5800 C 7796 5902 7763 6008 7752 6035 C 7742 6063 7730 6102 7726 6122 C 7719 6158 7705 6178 7693 6167 C 7690 6164 7700 6120 7714 6070 C 7728 6020 7740 5973 7740 5966 C 7740 5942 7897 5425 7972 5205 C 8029 5035 8113 4869 8213 4722 C 8275 4632 8315 4596 8411 4541 C 8458 4513 8497 4483 8518 4455 C 8559 4399 8558 4394 8513 4418 C 8492 4429 8417 4466 8346 4501 C 8196 4573 8156 4606 8068 4732 C 7915 4950 7688 5358 7617 5538 C 7452 5964 7406 6156 7350 6650 C 7330 6826 7329 6866 7335 7490 L 7342 8145 L 7317 8360 C 7303 8478 7289 8620 7286 8675 C 7280 8772 7281 8774 7296 8741 C 7305 8722 7329 8645 7350 8571 Z M 2967 8643 C 2963 8640 2960 8643 2960 8650 C 2960 8657 2963 8660 2967 8657 C 2970 8653 2970 8647 2967 8643 Z M 7001 8243 C 7017 7877 7015 7484 6997 7300 C 6964 6970 6986 6664 7074 6215 C 7134 5913 7147 5875 7293 5601 C 7345 5504 7428 5324 7479 5200 C 7530 5076 7596 4926 7625 4865 C 7696 4718 7844 4497 7914 4433 C 7970 4381 8125 4280 8147 4280 C 8183 4280 8138 4222 8096 4215 C 8057 4207 8037 4216 7917 4294 C 7822 4356 7719 4409 7640 4436 C 7524 4476 7395 4639 7158 5050 C 6872 5543 6832 5710 6843 6340 C 6849 6664 6860 6794 6916 7225 C 6941 7419 6960 7658 6970 7915 C 6975 8047 6980 8179 6981 8208 C 6983 8255 6999 8284 7001 8243 Z M 7075 7983 C 7089 7876 7091 7781 7088 7405 C 7083 6692 7114 6375 7220 6065 C 7319 5776 7391 5603 7574 5217 C 7629 5101 7791 4837 7898 4690 C 7960 4604 8194 4363 8258 4318 C 8282 4302 8299 4286 8297 4283 C 8284 4271 8157 4316 8086 4358 C 7966 4430 7892 4504 7797 4648 C 7692 4807 7625 4937 7540 5155 C 7479 5308 7421 5436 7321 5630 C 7191 5884 7176 5925 7125 6175 C 7027 6648 7005 6935 7035 7345 C 7046 7507 7050 7634 7046 7735 C 7030 8123 7030 8198 7045 8153 C 7052 8129 7066 8053 7075 7983 Z M 6722 7490 C 6702 7264 6689 7107 6680 6955 C 6674 6873 6666 6769 6660 6725 C 6650 6643 6642 6539 6635 6415 C 6631 6330 6614 6168 6595 6005 C 6587 5939 6580 5849 6580 5805 C 6580 5714 6605 5494 6620 5455 C 6626 5440 6630 5419 6630 5407 C 6630 5395 6648 5327 6670 5255 C 6753 4989 6755 4983 6715 5020 C 6647 5083 6559 5271 6509 5455 C 6454 5657 6400 5979 6400 6104 C 6400 6268 6492 6766 6589 7130 C 6646 7343 6708 7580 6716 7620 C 6730 7686 6733 7620 6722 7490 Z M 7924 7255 C 7950 7147 8061 6825 8123 6680 C 8145 6628 8175 6548 8191 6502 C 8206 6457 8232 6385 8249 6342 C 8265 6300 8308 6191 8343 6100 C 8444 5841 8492 5710 8511 5645 C 8520 5612 8539 5556 8553 5520 C 8566 5484 8601 5394 8629 5320 C 8694 5151 8731 5074 8790 4985 C 8853 4889 8857 4882 8829 4906 C 8816 4918 8788 4938 8767 4952 C 8631 5043 8409 5494 8180 6145 C 8165 6189 8138 6261 8121 6305 C 8066 6445 7989 6778 7919 7175 C 7892 7331 7894 7376 7924 7255 Z M 3540 7230 C 3546 7208 3554 7190 3558 7190 C 3563 7190 3580 7160 3598 7123 C 3628 7057 3643 6954 3641 6830 C 3640 6810 3644 6773 3649 6747 C 3662 6676 3646 6691 3627 6768 C 3587 6929 3521 7208 3516 7238 C 3508 7284 3527 7278 3540 7230 Z M 3769 6917 C 3826 6856 4103 6660 4133 6660 C 4136 6660 4179 6635 4230 6605 C 4281 6575 4339 6545 4357 6539 C 4386 6530 4391 6524 4385 6506 C 4382 6495 4375 6388 4369 6270 C 4354 5922 4332 5784 4249 5500 C 4232 5442 4209 5364 4197 5325 C 4152 5172 4015 4775 3970 4670 C 3953 4629 3930 4567 3920 4533 C 3910 4499 3890 4449 3876 4423 C 3862 4397 3840 4350 3826 4320 C 3748 4146 3729 4107 3710 4080 C 3699 4064 3687 4037 3685 4021 C 3683 4005 3677 3984 3672 3973 C 3648 3930 3591 3738 3586 3684 C 3582 3651 3573 3600 3565 3570 C 3558 3540 3539 3459 3524 3390 C 3509 3321 3482 3198 3464 3115 C 3385 2763 3310 2097 3310 1750 C 3310 1326 3366 1101 3500 977 C 3534 945 3575 914 3589 909 C 3621 896 3610 888 3526 866 C 3450 847 3429 856 3465 893 C 3498 925 3492 936 3437 945 C 3414 949 3383 959 3369 968 C 3339 985 3288 1066 3270 1125 C 3263 1147 3255 1170 3251 1175 C 3248 1181 3245 1190 3245 1195 C 3245 1201 3239 1230 3233 1260 C 3221 1319 3191 1567 3187 1640 C 3185 1675 3182 1681 3175 1666 C 3170 1654 3172 1592 3180 1506 C 3187 1428 3195 1340 3197 1310 C 3198 1280 3204 1246 3209 1235 C 3214 1224 3223 1188 3230 1155 C 3254 1038 3321 937 3389 915 C 3412 908 3416 890 3399 873 C 3386 860 3335 887 3292 929 C 3277 944 3256 962 3245 970 C 3196 1005 3158 1084 3140 1189 C 3135 1220 3121 1295 3110 1355 C 3099 1416 3087 1488 3085 1515 C 3071 1686 3070 1737 3081 1812 C 3101 1953 3168 2311 3190 2390 C 3201 2431 3213 2481 3215 2500 L 3220 2535 L 3201 2494 C 3191 2471 3180 2437 3177 2418 C 3175 2398 3165 2363 3156 2339 C 3147 2315 3134 2259 3126 2215 C 3118 2171 3104 2097 3095 2050 C 3075 1948 3073 1934 3071 1893 C 3071 1875 3065 1860 3059 1860 C 3039 1860 3054 2420 3078 2575 C 3105 2748 3182 3093 3210 3170 C 3215 3184 3222 3209 3225 3225 C 3235 3284 3409 3770 3460 3885 C 3473 3913 3500 3978 3520 4030 C 3541 4082 3581 4181 3609 4250 C 3693 4452 3755 4625 3804 4790 C 3829 4875 3866 4997 3886 5060 C 3991 5397 4006 5476 3996 5664 C 3984 5887 3939 6061 3841 6256 C 3813 6312 3784 6384 3776 6416 C 3757 6495 3709 6673 3705 6681 C 3698 6692 3661 6926 3660 6970 C 3657 7045 3659 7047 3693 7005 C 3711 6983 3745 6944 3769 6917 Z M 6436 6643 C 6434 6633 6428 6609 6425 6590 C 6421 6571 6407 6530 6395 6500 C 6371 6443 6325 6098 6332 6024 C 6333 6006 6331 5988 6327 5984 C 6323 5980 6320 5967 6320 5956 C 6321 5939 6325 5942 6339 5969 L 6357 6003 L 6363 5949 C 6386 5753 6441 5484 6484 5365 C 6497 5327 6518 5268 6530 5235 C 6562 5145 6615 5057 6674 4993 C 6703 4961 6749 4901 6776 4860 C 6802 4819 6847 4760 6876 4730 C 6904 4700 6937 4657 6947 4635 C 6983 4563 6997 4535 7008 4510 C 7018 4486 7019 4486 7019 4508 C 7020 4542 7036 4535 7079 4478 C 7140 4395 7210 4339 7351 4257 C 7620 4102 7722 4080 8049 4111 C 8196 4124 8210 4127 8210 4145 C 8210 4153 8216 4160 8223 4160 C 8229 4161 8266 4176 8305 4195 C 8343 4213 8376 4227 8378 4225 C 8382 4222 8300 4144 8225 4080 C 8164 4028 8087 3990 8040 3990 C 8021 3990 7967 3997 7920 4005 C 7773 4030 7630 4043 7495 4044 C 7349 4045 7290 4064 7248 4121 C 7236 4137 7221 4150 7216 4150 C 7201 4150 7162 4214 7090 4358 C 7056 4426 7027 4480 7024 4477 C 7012 4465 7097 4291 7178 4161 C 7266 4021 7271 4019 7525 4009 C 7630 4004 7758 3994 7810 3985 C 8052 3946 8052 3946 8114 3964 C 8178 3983 8248 4039 8425 4210 C 8541 4322 8563 4337 8615 4342 C 8651 4345 8656 4342 8681 4305 C 8696 4283 8714 4265 8722 4265 C 8745 4265 8742 4305 8715 4344 C 8701 4364 8692 4385 8695 4390 C 8698 4394 8733 4410 8774 4425 C 8815 4440 8857 4462 8868 4475 C 8879 4488 8919 4516 8957 4538 C 8995 4561 9049 4599 9077 4624 C 9137 4678 9154 4680 9229 4639 C 9315 4591 9352 4536 9429 4337 C 9508 4137 9519 4090 9490 4083 C 9478 4080 9470 4069 9470 4057 C 9470 4020 9429 3951 9383 3910 C 9310 3846 9193 3772 9004 3669 C 8975 3654 8943 3636 8933 3631 C 8923 3625 8877 3603 8830 3582 C 8783 3560 8729 3536 8710 3527 C 8691 3518 8621 3490 8556 3465 C 8490 3440 8380 3392 8311 3358 C 8242 3325 8167 3289 8145 3279 C 8123 3269 8098 3256 8090 3251 C 7974 3177 7510 2964 7510 2984 C 7510 2986 7558 3018 7618 3056 C 7677 3093 7757 3145 7795 3172 C 7834 3199 7889 3235 7917 3253 C 7946 3271 8034 3324 8112 3372 C 8246 3454 8421 3540 8570 3597 C 8605 3610 8652 3630 8675 3640 C 8697 3650 8747 3669 8785 3683 C 8866 3712 9070 3800 9150 3840 C 9208 3870 9337 3977 9356 4012 C 9362 4024 9366 4040 9364 4049 C 9362 4058 9356 4142 9350 4235 C 9343 4366 9335 4419 9318 4468 C 9283 4569 9210 4640 9143 4640 C 9074 4639 9082 4607 9151 4605 C 9193 4604 9247 4564 9270 4516 C 9313 4430 9319 4396 9321 4235 C 9323 4032 9327 4051 9279 3992 C 9208 3905 9150 3871 8860 3745 C 8819 3727 8769 3707 8750 3700 C 8731 3693 8687 3674 8653 3658 C 8619 3643 8587 3630 8583 3630 C 8575 3630 8546 3618 8340 3532 C 8273 3504 8180 3450 7935 3301 C 7897 3277 7802 3216 7725 3165 C 7648 3114 7569 3065 7550 3055 C 7531 3046 7490 3019 7460 2996 C 7430 2974 7358 2931 7300 2902 C 7242 2873 7157 2829 7110 2805 C 7026 2763 6986 2729 6939 2660 C 6926 2641 6911 2621 6905 2615 C 6898 2610 6876 2580 6855 2550 C 6834 2520 6792 2467 6762 2432 C 6731 2397 6706 2361 6705 2352 C 6705 2342 6701 2330 6698 2325 C 6695 2319 6685 2288 6677 2255 C 6668 2222 6648 2166 6631 2130 L 6600 2065 L 6606 2135 C 6609 2174 6619 2215 6627 2228 C 6638 2246 6639 2255 6630 2265 C 6617 2281 6621 2323 6656 2495 C 6669 2561 6688 2676 6699 2750 C 6717 2877 6761 3064 6781 3101 C 6792 3122 6846 3337 6860 3417 C 6874 3496 6926 3671 6953 3733 C 6973 3777 6978 3780 7011 3780 C 7047 3780 7095 3802 7270 3898 C 7311 3921 7355 3940 7368 3940 C 7385 3940 7390 3946 7390 3966 C 7390 3991 7388 3992 7353 3987 C 7309 3980 7321 3970 7066 4225 C 6973 4319 6900 4388 6905 4380 C 6913 4367 6911 4367 6898 4378 C 6889 4386 6883 4397 6886 4404 C 6889 4411 6882 4425 6870 4435 C 6859 4445 6850 4450 6850 4445 C 6850 4441 6843 4443 6835 4450 C 6817 4465 6815 4484 6833 4474 C 6840 4470 6842 4471 6837 4476 C 6832 4481 6823 4485 6817 4485 C 6810 4485 6806 4493 6806 4502 C 6807 4512 6803 4518 6797 4517 C 6778 4513 6670 4676 6604 4810 C 6476 5067 6460 5105 6431 5215 C 6411 5288 6401 5314 6401 5291 C 6400 5273 6407 5231 6416 5198 C 6424 5165 6429 5131 6426 5123 C 6423 5115 6424 5111 6428 5114 C 6436 5119 6490 5011 6556 4860 C 6659 4625 6825 4405 7114 4121 C 7194 4042 7260 3976 7260 3973 C 7260 3949 6983 4033 6870 4091 C 6718 4169 6688 4204 6562 4455 C 6517 4543 6481 4613 6480 4610 C 6479 4587 6542 4425 6590 4330 C 6681 4148 6762 4084 7018 3993 C 7088 3969 7170 3945 7200 3942 L 7255 3935 L 7160 3883 C 7039 3817 6990 3803 6932 3819 C 6703 3882 6402 4485 6350 4985 C 6345 5035 6337 5111 6332 5155 C 6326 5199 6322 5245 6322 5258 C 6319 5703 6321 5825 6330 5834 C 6337 5841 6340 5801 6340 5707 C 6340 5632 6343 5570 6348 5570 C 6352 5570 6354 5630 6354 5703 C 6352 5873 6353 5870 6334 5870 C 6324 5870 6320 5876 6323 5885 C 6327 5893 6325 5902 6320 5905 C 6294 5921 6285 5240 6309 5060 C 6358 4696 6371 4644 6485 4330 C 6507 4272 6603 4090 6650 4020 C 6719 3918 6817 3822 6871 3803 C 6925 3784 6926 3781 6907 3742 C 6891 3711 6846 3541 6796 3325 C 6776 3243 6748 3139 6731 3095 C 6715 3051 6693 2957 6681 2885 C 6632 2586 6618 2501 6604 2427 C 6597 2385 6590 2334 6590 2315 L 6590 2281 L 6358 2283 C 5902 2286 5582 2272 5485 2244 C 5403 2220 5163 2190 5059 2190 C 4975 2190 4744 2211 4670 2225 C 4656 2228 4544 2237 4420 2245 C 4064 2269 3830 2305 3653 2362 L 3590 2383 L 3590 2469 C 3591 2709 3613 2985 3650 3220 C 3681 3416 3711 3684 3717 3819 L 3723 3973 L 3817 4179 C 3868 4292 3946 4451 3990 4531 C 4073 4684 4091 4724 4145 4880 C 4194 5023 4261 5178 4346 5345 L 4423 5495 L 4427 5740 C 4433 6102 4433 6155 4425 6272 C 4417 6388 4425 6490 4442 6490 C 4448 6490 4481 6473 4514 6451 C 4548 6430 4614 6393 4660 6370 C 4707 6347 4792 6298 4850 6261 L 4954 6195 L 5055 6192 C 5111 6190 5205 6195 5266 6204 C 5372 6218 5382 6222 5508 6290 C 5628 6355 5934 6470 5987 6470 C 5995 6470 6059 6493 6129 6520 C 6199 6548 6260 6570 6265 6570 C 6270 6570 6281 6577 6290 6585 C 6313 6606 6412 6660 6428 6660 C 6436 6660 6439 6653 6436 6643 Z M 3751 6311 C 3763 6270 3774 6221 3776 6201 C 3787 6101 3810 6002 3858 5840 C 3886 5744 3895 5532 3873 5475 C 3867 5459 3847 5398 3830 5340 C 3812 5282 3793 5224 3788 5210 C 3783 5196 3763 5138 3743 5080 C 3724 5022 3705 4966 3701 4955 C 3696 4944 3674 4886 3652 4825 C 3630 4765 3577 4632 3535 4530 C 3460 4348 3390 4179 3305 3970 C 3281 3912 3244 3828 3221 3784 C 3198 3739 3180 3698 3180 3692 C 3180 3686 3164 3651 3145 3613 C 3126 3576 3110 3540 3110 3533 C 3110 3527 3093 3484 3072 3438 C 3050 3392 3027 3337 3020 3315 C 3013 3293 2990 3239 2969 3195 C 2935 3124 2919 3076 2869 2885 C 2845 2792 2845 2495 2870 2330 C 2900 2127 2910 2047 2916 1960 C 2922 1877 2975 1535 2991 1480 C 2996 1461 3007 1411 3016 1370 C 3024 1329 3039 1268 3050 1235 C 3060 1202 3072 1159 3075 1140 L 3082 1105 L 3055 1140 C 2995 1218 2866 1519 2830 1665 C 2818 1715 2803 1766 2798 1779 C 2793 1792 2785 1828 2780 1859 C 2776 1890 2767 1934 2761 1958 C 2755 1981 2738 2075 2724 2168 C 2662 2571 2680 2926 2780 3270 C 2791 3306 2802 3349 2806 3365 C 2842 3531 2973 3853 3111 4115 C 3514 4880 3629 5236 3650 5780 C 3662 6077 3681 6293 3706 6400 C 3714 6431 3718 6423 3751 6311 Z M 3834 6225 C 3838 6211 3851 6176 3864 6147 C 3899 6070 3917 6013 3935 5919 C 3944 5873 3954 5819 3959 5800 C 3977 5715 3960 5409 3931 5321 C 3911 5260 3883 5168 3794 4875 C 3706 4583 3534 4118 3409 3835 C 3368 3741 3224 3327 3182 3180 C 3150 3070 3062 2682 3055 2625 C 3018 2301 3018 2294 3025 2075 C 3038 1668 3040 1476 3031 1485 C 3018 1500 2972 1795 2950 2005 C 2939 2110 2921 2265 2910 2350 C 2883 2559 2884 2759 2910 2893 C 2937 3026 2947 3055 3048 3305 C 3095 3421 3141 3537 3151 3563 C 3161 3590 3173 3617 3178 3623 C 3183 3630 3193 3651 3200 3670 C 3207 3689 3234 3752 3260 3810 C 3303 3906 3335 3981 3493 4355 C 3577 4555 3675 4797 3708 4890 C 3725 4937 3771 5063 3810 5170 C 3965 5591 3965 5595 3882 5930 C 3814 6202 3801 6267 3817 6257 C 3823 6253 3831 6239 3834 6225 Z M 4397 5938 C 4394 5931 4392 5936 4392 5950 C 4392 5964 4394 5969 4397 5963 C 4399 5956 4399 5944 4397 5938 Z M 4395 5788 C 4383 5548 4369 5496 4245 5235 C 4232 5208 4207 5149 4190 5105 C 4172 5061 4155 5021 4150 5015 C 4146 5010 4137 4985 4130 4960 C 4096 4834 3940 4495 3940 4548 C 3940 4555 3946 4571 3954 4583 C 3980 4622 4156 5081 4215 5261 C 4247 5357 4286 5469 4302 5511 C 4318 5553 4338 5627 4345 5676 C 4353 5725 4365 5800 4372 5843 C 4391 5963 4403 5935 4395 5788 Z M 1220 4885 C 1220 4882 1218 4880 1215 4880 C 1212 4880 1210 4882 1210 4885 C 1210 4888 1212 4890 1215 4890 C 1218 4890 1220 4888 1220 4885 Z M 1209 4668 C 1209 4538 1206 4501 1198 4520 C 1182 4559 1178 4708 1192 4778 C 1198 4812 1205 4840 1207 4840 C 1209 4840 1210 4762 1209 4668 Z M 7057 4601 C 7080 4590 7114 4580 7132 4580 C 7168 4580 7240 4538 7325 4466 C 7462 4350 7694 4228 7873 4177 C 7937 4158 7987 4140 7983 4137 C 7971 4125 7787 4130 7705 4144 C 7600 4163 7544 4185 7427 4253 C 7374 4285 7328 4310 7325 4310 C 7321 4310 7281 4337 7237 4369 C 7135 4442 6980 4608 6980 4644 C 6980 4649 6988 4646 6998 4638 C 7007 4629 7034 4613 7057 4601 Z M 3927 4503 C 3923 4500 3920 4503 3920 4510 C 3920 4517 3923 4520 3927 4517 C 3930 4513 3930 4507 3927 4503 Z M 9446 4415 C 9453 4396 9460 4375 9460 4368 C 9459 4353 9436 4394 9426 4428 C 9415 4463 9429 4454 9446 4415 Z M 6865 4430 C 6868 4425 6869 4420 6866 4420 C 6863 4420 6858 4425 6855 4430 C 6852 4436 6851 4440 6854 4440 C 6857 4440 6862 4436 6865 4430 Z M 1260 4138 C 1260 4108 1318 3948 1410 3725 C 1444 3643 1495 3503 1522 3415 C 1549 3327 1583 3228 1598 3195 C 1621 3142 1624 3116 1630 2965 C 1634 2872 1636 2793 1634 2791 C 1631 2788 1615 2802 1597 2822 C 1567 2855 1476 2908 1420 2925 C 1291 2965 1019 3107 968 3162 C 953 3179 934 3190 926 3187 C 907 3179 819 3255 796 3298 C 743 3401 712 3543 709 3708 C 707 3807 704 3803 850 3908 C 908 3949 996 4023 1045 4071 C 1095 4119 1158 4172 1185 4188 L 1235 4217 L 1247 4191 C 1254 4177 1259 4153 1260 4138 Z M 1909 3985 C 1922 3913 1922 3910 1910 3910 C 1905 3910 1901 3913 1901 3918 C 1902 3922 1901 3927 1900 3930 C 1891 3949 1876 4114 1879 4155 C 1883 4202 1884 4200 1891 4124 C 1895 4079 1903 4017 1909 3985 Z M 9510 4065 C 9510 4062 9508 4060 9505 4060 C 9502 4060 9500 4062 9500 4065 C 9500 4068 9502 4070 9505 4070 C 9508 4070 9510 4068 9510 4065 Z M 3679 3735 C 3675 3664 3664 3569 3656 3525 C 3648 3481 3639 3416 3635 3380 C 3629 3314 3622 3267 3595 3102 C 3562 2904 3540 2164 3563 2029 C 3577 1946 3586 1814 3579 1782 C 3575 1764 3577 1749 3583 1747 C 3589 1745 3586 1733 3576 1718 C 3566 1703 3563 1690 3569 1688 C 3583 1684 3596 1617 3614 1465 C 3646 1197 3673 1079 3715 1019 C 3735 989 3772 949 3796 930 C 3840 896 3840 895 3814 892 C 3767 886 3740 898 3740 925 C 3740 953 3725 958 3713 935 C 3701 914 3651 930 3603 969 C 3583 985 3563 997 3559 994 C 3555 992 3552 998 3553 1007 C 3554 1030 3521 1082 3509 1074 C 3504 1071 3504 1061 3510 1050 C 3525 1022 3522 1018 3499 1032 C 3441 1067 3380 1285 3360 1526 C 3331 1864 3393 2600 3485 3019 C 3548 3307 3590 3495 3604 3555 C 3612 3588 3628 3665 3640 3725 C 3660 3825 3677 3877 3685 3868 C 3686 3867 3684 3807 3679 3735 Z M 1990 3612 C 1990 3603 1997 3575 2006 3550 C 2020 3509 2037 3444 2060 3335 C 2087 3207 2100 2889 2082 2760 L 2074 2695 L 2067 2765 C 2063 2804 2053 2885 2045 2946 C 2037 3007 2030 3081 2030 3110 C 2030 3173 2005 3405 1991 3470 C 1975 3544 1968 3642 1980 3635 C 1985 3632 1990 3621 1990 3612 Z M 1715 3060 C 1759 2989 1765 2626 1724 2445 C 1697 2323 1678 2247 1660 2190 C 1650 2160 1632 2105 1621 2069 C 1610 2032 1574 1946 1541 1877 C 1489 1768 1473 1746 1419 1696 C 1385 1665 1354 1640 1351 1640 C 1348 1640 1337 1654 1328 1670 C 1302 1715 1268 1711 1245 1659 C 1226 1618 1226 1618 1180 1623 C 1155 1625 1122 1633 1105 1640 L 1075 1652 L 1127 1666 C 1305 1712 1469 1883 1577 2134 C 1652 2309 1667 2420 1675 2860 C 1678 3022 1681 3160 1681 3165 C 1682 3171 1688 3152 1695 3124 C 1702 3096 1711 3067 1715 3060 Z M 6986 2652 C 6970 2637 6961 2632 6965 2640 C 6978 2665 7003 2690 7009 2685 C 7012 2682 7001 2667 6986 2652 Z M 2130 2378 C 2130 2360 2133 2267 2137 2173 C 2140 2061 2139 2000 2133 2000 C 2118 2000 2110 2087 2110 2258 C 2110 2353 2114 2410 2120 2410 C 2126 2410 2130 2395 2130 2378 Z M 2069 2167 C 2068 2116 2064 2066 2060 2055 C 2056 2044 2044 2008 2034 1975 C 2024 1942 2013 1911 2009 1905 C 2006 1900 1995 1868 1985 1835 C 1976 1802 1948 1726 1923 1667 C 1885 1577 1871 1555 1841 1535 C 1787 1500 1578 1475 1540 1500 C 1527 1508 1528 1510 1543 1510 C 1615 1510 1784 1619 1844 1703 C 1914 1801 1991 1997 2035 2187 C 2046 2232 2058 2266 2063 2263 C 2067 2260 2070 2217 2069 2167 Z M 3777 1953 C 3773 1950 3770 1953 3770 1960 C 3770 1967 3773 1970 3777 1967 C 3780 1963 3780 1957 3777 1953 Z M 3820 1960 C 3820 1955 3815 1950 3809 1950 C 3804 1950 3802 1955 3805 1960 C 3808 1966 3813 1970 3816 1970 C 3818 1970 3820 1966 3820 1960 Z M 3870 1965 C 3870 1962 3868 1960 3865 1960 C 3862 1960 3860 1962 3860 1965 C 3860 1968 3862 1970 3865 1970 C 3868 1970 3870 1968 3870 1965 Z M 3920 1935 C 3920 1932 3918 1930 3915 1930 C 3912 1930 3910 1932 3910 1935 C 3910 1938 3912 1940 3915 1940 C 3918 1940 3920 1938 3920 1935 Z M 1300 1646 C 1300 1631 1282 1615 1274 1623 C 1267 1630 1281 1660 1291 1660 C 1296 1660 1300 1654 1300 1646 Z M 1352 1565 C 1370 1548 1395 1527 1408 1518 C 1431 1502 1430 1502 1372 1495 C 1334 1491 1304 1492 1291 1499 C 1271 1510 1252 1570 1264 1588 C 1275 1606 1319 1594 1352 1565 Z M 3080 1415 C 3080 1412 3078 1410 3075 1410 C 3072 1410 3070 1412 3070 1415 C 3070 1418 3072 1420 3075 1420 C 3078 1420 3080 1418 3080 1415 Z M 3090 1095 C 3090 1092 3088 1090 3085 1090 C 3082 1090 3080 1092 3080 1095 C 3080 1098 3082 1100 3085 1100 C 3088 1100 3090 1098 3090 1095 Z M 3219 926 C 3228 918 3259 896 3289 876 C 3323 854 3338 839 3329 836 C 3234 805 3220 806 3220 839 C 3220 849 3213 876 3205 899 C 3190 942 3193 949 3219 926 Z M 1705 5908 C 1696 5873 1674 5805 1658 5757 C 1642 5708 1630 5656 1632 5642 C 1634 5624 1643 5644 1659 5705 C 1672 5755 1691 5812 1702 5833 C 1720 5869 1739 5970 1728 5970 C 1725 5970 1715 5942 1705 5908 Z M 3446 10305 C 3437 10279 3439 10273 3451 10293 C 3457 10303 3460 10314 3457 10316 C 3455 10319 3450 10314 3446 10305 Z M 3430 10265 C 3430 10262 3432 10260 3435 10260 C 3438 10260 3440 10262 3440 10265 C 3440 10268 3438 10270 3435 10270 C 3432 10270 3430 10268 3430 10265 Z M 3414 10238 C 3410 10231 3411 10230 3418 10234 C 3430 10241 3434 10250 3426 10250 C 3423 10250 3418 10245 3414 10238 Z M 3370 10155 C 3370 10152 3372 10150 3375 10150 C 3378 10150 3380 10152 3380 10155 C 3380 10158 3378 10160 3375 10160 C 3372 10160 3370 10158 3370 10155 Z M 3360 10135 C 3360 10132 3362 10130 3365 10130 C 3368 10130 3370 10132 3370 10135 C 3370 10138 3368 10140 3365 10140 C 3362 10140 3360 10138 3360 10135 Z M 3350 10115 C 3350 10112 3352 10110 3355 10110 C 3358 10110 3360 10112 3360 10115 C 3360 10118 3358 10120 3355 10120 C 3352 10120 3350 10118 3350 10115 Z M 2830 7843 C 2824 7811 2807 7737 2793 7678 C 2779 7619 2770 7565 2772 7558 C 2777 7545 2820 7723 2840 7834 C 2853 7911 2845 7919 2830 7843 Z M 2761 7504 C 2761 7493 2764 7490 2767 7498 C 2770 7505 2769 7514 2766 7517 C 2763 7521 2760 7515 2761 7504 Z M 2736 7422 C 2726 7390 2720 7355 2722 7344 C 2724 7334 2734 7358 2744 7398 C 2766 7486 2760 7503 2736 7422 Z M 2835 6831 C 2819 6792 2809 6758 2812 6755 C 2814 6752 2829 6782 2844 6821 C 2859 6860 2870 6894 2867 6896 C 2864 6899 2850 6869 2835 6831 Z M 2785 6693 C 2747 6585 2674 6414 2586 6225 C 2534 6115 2494 6023 2496 6021 C 2502 6015 2498 6007 2607 6235 C 2723 6477 2821 6723 2807 6736 C 2804 6739 2794 6720 2785 6693 Z M 3206 6634 C 3203 6625 3200 6582 3200 6537 C 3200 6441 3171 6278 3140 6201 C 3124 6160 3123 6150 3134 6159 C 3172 6191 3209 6352 3225 6563 C 3230 6619 3229 6650 3222 6650 C 3217 6650 3209 6643 3206 6634 Z M 3096 6087 C 3087 6070 3073 6044 3065 6030 C 3047 5996 3036 5950 3047 5950 C 3057 5950 3089 6006 3094 6035 C 3096 6046 3103 6068 3109 6084 C 3125 6124 3117 6126 3096 6087 Z M 2397 5852 C 2377 5815 2344 5758 2325 5725 C 2287 5660 2277 5618 2309 5659 C 2333 5690 2444 5909 2439 5914 C 2437 5917 2418 5888 2397 5852 Z M 3312 5755 C 3298 5724 3297 5720 3309 5720 C 3318 5720 3334 5769 3327 5776 C 3325 5778 3318 5769 3312 5755 Z M 2260 5605 C 2260 5602 2262 5600 2265 5600 C 2268 5600 2270 5602 2270 5605 C 2270 5608 2268 5610 2265 5610 C 2262 5610 2260 5608 2260 5605 Z M 2240 5575 C 2240 5572 2242 5570 2245 5570 C 2248 5570 2250 5572 2250 5575 C 2250 5578 2248 5580 2245 5580 C 2242 5580 2240 5578 2240 5575 Z M 2193 5498 C 2171 5469 2109 5346 2123 5360 C 2140 5376 2215 5510 2207 5510 C 2205 5510 2198 5504 2193 5498 Z M 2100 5330 C 2100 5323 2103 5320 2107 5323 C 2110 5327 2110 5333 2107 5337 C 2103 5340 2100 5337 2100 5330 Z M 2084 5298 C 2080 5291 2081 5290 2088 5294 C 2095 5298 2100 5303 2100 5306 C 2100 5314 2091 5310 2084 5298 Z M 2070 5265 C 2070 5262 2072 5260 2075 5260 C 2078 5260 2080 5262 2080 5265 C 2080 5268 2078 5270 2075 5270 C 2072 5270 2070 5268 2070 5265 Z M 2612 1745 C 2612 1734 2616 1714 2620 1700 L 2628 1675 L 2628 1700 C 2628 1714 2625 1734 2620 1745 L 2611 1765 L 2612 1745 Z M 3806 8891 C 3802 8886 3818 8866 3840 8847 L 3881 8812 L 3846 8806 C 3808 8799 3781 8774 3796 8760 C 3801 8755 3829 8759 3863 8771 C 3902 8784 3933 8788 3956 8784 C 4000 8776 4008 8762 3973 8754 C 3958 8750 3932 8738 3914 8728 C 3878 8707 3798 8682 3749 8676 C 3729 8674 3715 8667 3715 8659 C 3715 8649 3734 8644 3790 8642 C 3869 8639 3909 8622 3871 8608 C 3849 8600 3843 8576 3859 8565 C 3864 8562 3871 8564 3875 8570 C 3887 8589 3910 8581 3907 8558 C 3905 8540 3911 8535 3941 8530 C 3961 8526 3993 8516 4012 8507 C 4089 8470 4121 8490 4046 8528 C 4018 8542 4000 8558 4000 8568 C 4000 8578 3982 8597 3960 8610 C 3923 8634 3910 8650 3929 8650 C 3933 8650 3977 8672 4026 8699 C 4075 8726 4128 8751 4144 8754 C 4170 8761 4172 8759 4166 8738 C 4140 8654 4154 8539 4193 8502 C 4223 8475 4282 8460 4360 8460 C 4439 8460 4487 8482 4509 8527 C 4529 8568 4534 8568 4545 8528 C 4554 8499 4552 8492 4531 8474 C 4494 8442 4509 8416 4558 8424 C 4588 8429 4598 8426 4611 8408 C 4620 8397 4632 8390 4639 8394 C 4653 8403 4654 8440 4639 8440 C 4634 8440 4615 8470 4598 8508 C 4534 8650 4526 8662 4465 8707 C 4379 8771 4311 8804 4218 8824 C 4198 8829 4193 8834 4197 8850 C 4204 8875 4175 8878 4162 8854 C 4150 8833 4107 8842 4082 8870 C 4060 8896 4036 8896 4043 8870 C 4048 8852 4039 8845 4017 8849 C 4012 8850 3991 8846 3968 8840 C 3930 8829 3925 8831 3874 8864 C 3815 8904 3814 8904 3806 8891 Z M 4060 8800 C 4024 8788 4000 8788 4000 8800 C 4000 8806 4019 8810 4043 8809 C 4079 8808 4081 8807 4060 8800 Z M 4384 8709 C 4398 8696 4351 8650 4324 8650 C 4295 8650 4286 8677 4305 8707 C 4321 8730 4360 8731 4384 8709 Z M 4423 8586 C 4429 8570 4358 8547 4325 8554 C 4314 8557 4302 8559 4298 8559 C 4293 8560 4290 8567 4290 8576 C 4290 8588 4297 8590 4318 8586 C 4333 8583 4359 8584 4375 8589 C 4416 8602 4417 8602 4423 8586 Z M 6071 8756 C 6064 8748 6040 8739 6017 8735 C 5994 8731 5926 8715 5867 8700 C 5725 8662 5693 8639 5609 8516 C 5547 8425 5529 8383 5546 8369 C 5563 8355 5586 8371 5596 8403 C 5606 8435 5702 8580 5713 8580 C 5718 8580 5719 8564 5716 8545 C 5708 8502 5737 8429 5772 8407 C 5784 8398 5827 8388 5867 8384 C 5935 8378 5942 8379 6006 8411 C 6090 8454 6121 8505 6100 8572 C 6084 8626 6091 8628 6152 8590 C 6248 8530 6271 8517 6307 8505 L 6343 8492 L 6284 8475 C 6222 8457 6170 8431 6170 8418 C 6170 8414 6186 8410 6205 8410 C 6227 8410 6243 8404 6246 8395 C 6250 8387 6258 8380 6265 8380 C 6272 8380 6280 8387 6284 8395 C 6287 8404 6302 8410 6320 8410 C 6339 8410 6350 8415 6350 8424 C 6350 8440 6412 8450 6506 8450 C 6540 8450 6571 8454 6575 8460 C 6583 8474 6514 8506 6445 8520 C 6412 8527 6358 8546 6325 8563 L 6265 8593 L 6297 8602 C 6321 8608 6347 8604 6404 8585 C 6490 8556 6500 8555 6500 8573 C 6500 8588 6470 8605 6426 8615 C 6404 8620 6400 8624 6409 8630 C 6438 8647 6413 8669 6372 8663 C 6333 8658 6190 8704 6190 8722 C 6190 8725 6204 8734 6220 8742 C 6237 8749 6250 8758 6250 8762 C 6250 8778 6192 8769 6167 8750 C 6153 8739 6129 8730 6114 8730 C 6088 8730 6087 8730 6105 8750 C 6123 8769 6122 8770 6103 8770 C 6092 8770 6077 8764 6071 8756 Z M 6100 8690 C 6100 8685 6093 8680 6085 8680 C 6077 8680 6070 8685 6070 8690 C 6070 8696 6077 8700 6085 8700 C 6093 8700 6100 8696 6100 8690 Z M 6230 8660 L 6285 8641 L 6255 8630 C 6225 8619 6225 8619 6158 8655 C 6148 8660 6140 8668 6140 8672 C 6140 8685 6171 8681 6230 8660 Z M 5920 8643 C 5920 8609 5862 8570 5859 8603 C 5857 8626 5862 8645 5873 8652 C 5894 8666 5920 8660 5920 8643 Z M 6004 8551 C 5996 8533 5990 8516 5990 8515 C 5990 8510 5933 8489 5924 8491 C 5919 8492 5908 8492 5900 8491 C 5887 8490 5887 8489 5900 8480 C 5912 8472 5911 8470 5894 8470 C 5883 8470 5865 8479 5855 8490 C 5845 8501 5831 8510 5825 8510 C 5813 8510 5800 8531 5800 8551 C 5800 8556 5811 8553 5825 8544 C 5842 8533 5850 8532 5850 8539 C 5850 8547 5862 8550 5883 8548 C 5900 8546 5922 8551 5930 8558 C 5996 8614 6005 8619 6011 8602 C 6015 8593 6011 8570 6004 8551 Z M 5930 8475 C 5930 8472 5928 8470 5925 8470 C 5922 8470 5920 8472 5920 8475 C 5920 8478 5922 8480 5925 8480 C 5928 8480 5930 8478 5930 8475 Z M 5990 8565 C 5990 8562 5992 8560 5995 8560 C 5998 8560 6000 8562 6000 8565 C 6000 8568 5998 8570 5995 8570 C 5992 8570 5990 8568 5990 8565 Z M 3750 8531 C 3750 8498 3849 8440 3917 8432 C 3978 8425 3971 8444 3905 8465 C 3875 8474 3835 8492 3818 8504 C 3778 8531 3750 8542 3750 8531 Z M 6433 8379 C 6363 8352 6359 8324 6428 8346 C 6454 8354 6485 8363 6498 8366 C 6524 8373 6527 8385 6504 8394 C 6495 8397 6488 8400 6487 8399 C 6486 8399 6461 8390 6433 8379 Z M 4986 8055 C 4983 8046 4980 8024 4980 8006 C 4980 7982 4970 7965 4940 7935 C 4892 7888 4888 7852 4925 7798 C 4955 7754 4983 7736 5010 7745 C 5033 7752 5037 7770 5016 7770 C 4992 7770 4943 7818 4935 7847 C 4929 7871 4934 7880 4968 7910 C 5005 7943 5008 7951 5011 8005 C 5015 8062 5000 8091 4986 8055 Z M 5375 7758 C 5371 7749 5370 7734 5372 7724 C 5374 7711 5364 7700 5340 7689 C 5305 7672 5305 7672 5292 7696 C 5277 7724 5273 7725 5210 7704 C 5154 7686 5137 7670 5146 7646 C 5154 7625 5159 7625 5220 7656 C 5258 7675 5275 7679 5283 7671 C 5291 7663 5288 7660 5273 7660 C 5245 7660 5220 7650 5220 7639 C 5220 7625 5291 7630 5350 7649 L 5405 7666 L 5404 7708 C 5403 7755 5385 7785 5375 7758 Z M 4704 7734 C 4686 7663 4733 7613 4829 7603 C 4887 7597 4892 7598 4888 7616 C 4886 7630 4872 7637 4830 7642 C 4769 7651 4735 7679 4744 7714 C 4749 7734 4735 7760 4719 7760 C 4714 7760 4707 7748 4704 7734 Z M 4841 7721 C 4809 7712 4791 7685 4808 7668 C 4817 7659 4823 7659 4832 7668 C 4852 7688 4889 7681 4936 7649 C 4978 7620 5010 7616 5010 7639 C 5010 7652 4895 7730 4878 7729 C 4871 7728 4854 7725 4841 7721 Z M 4988 7409 C 4958 7392 4978 7368 5019 7373 C 5050 7376 5100 7368 5198 7343 C 5213 7339 5220 7342 5220 7351 C 5219 7383 5193 7396 5109 7408 C 5008 7422 5010 7422 4988 7409 Z M 4504 7299 C 4511 7255 4547 7180 4562 7180 C 4566 7180 4570 7173 4570 7165 C 4570 7157 4576 7150 4583 7150 C 4601 7150 4619 7170 4614 7184 C 4611 7192 4637 7195 4697 7195 C 4746 7195 4843 7206 4915 7220 C 5065 7247 5163 7242 5355 7194 C 5437 7173 5474 7169 5557 7172 C 5651 7175 5660 7173 5662 7156 C 5666 7132 5696 7112 5709 7125 C 5714 7131 5715 7167 5711 7205 C 5706 7268 5703 7275 5683 7278 C 5668 7280 5660 7276 5660 7266 C 5660 7212 5516 7202 5356 7244 C 5257 7270 5033 7296 4985 7287 C 4842 7260 4708 7240 4673 7240 C 4606 7240 4554 7265 4543 7303 C 4538 7322 4526 7336 4516 7338 C 4499 7342 4498 7337 4504 7299 Z M 4897 7034 C 4851 6988 4983 6951 5190 6951 C 5328 6951 5360 6958 5360 6991 C 5360 7003 5333 7005 5198 7002 C 5043 6999 4985 7006 4919 7034 C 4911 7038 4901 7037 4897 7034 Z M 5370 6996 C 5370 6978 5397 6957 5410 6965 C 5425 6974 5422 6997 5404 7004 C 5380 7013 5370 7011 5370 6996 Z M 3770 9365 C 3770 9362 3772 9360 3775 9360 C 3778 9360 3780 9362 3780 9365 C 3780 9368 3778 9370 3775 9370 C 3772 9370 3770 9368 3770 9365 Z M 3660 3995 C 3660 3992 3662 3990 3665 3990 C 3668 3990 3670 3992 3670 3995 C 3670 3998 3668 4000 3665 4000 C 3662 4000 3660 3998 3660 3995 Z M 3270 2500 C 3270 2493 3273 2490 3277 2493 C 3280 2497 3280 2503 3277 2507 C 3273 2510 3270 2507 3270 2500 Z M 3262 2420 C 3262 2406 3264 2401 3267 2408 C 3269 2414 3269 2426 3267 2433 C 3264 2439 3262 2434 3262 2420 Z M 3182 1880 C 3182 1866 3184 1861 3187 1868 C 3189 1874 3189 1886 3187 1893 C 3184 1899 3182 1894 3182 1880 Z M 6357 5470 C 6360 5445 6369 5407 6376 5385 L 6389 5345 L 6384 5400 C 6380 5430 6372 5469 6364 5485 C 6351 5514 6351 5514 6357 5470 Z M 6430 4755 C 6430 4750 6435 4738 6440 4730 C 6445 4722 6450 4720 6450 4725 C 6450 4731 6445 4742 6440 4750 C 6435 4758 6430 4761 6430 4755 Z M 6456 4670 C 6459 4656 6467 4638 6472 4630 C 6478 4620 6479 4623 6474 4640 C 6471 4654 6463 4672 6458 4680 C 6452 4690 6451 4687 6456 4670 Z M 3940 3997 C 3940 3976 3949 3971 4017 3959 C 4116 3940 4157 3912 4306 3756 C 4383 3676 4453 3610 4462 3610 C 4491 3610 4495 3649 4468 3668 C 4456 3677 4387 3741 4315 3812 C 4167 3958 4103 3998 4001 4007 C 3950 4012 3940 4010 3940 3997 Z M 6309 3900 C 6301 3895 6188 3886 6059 3880 C 5500 3853 5520 3857 5401 3746 C 5337 3686 5333 3680 5349 3666 C 5365 3652 5370 3655 5416 3701 C 5499 3786 5533 3801 5668 3811 C 5732 3816 5817 3824 5855 3830 C 5894 3835 6019 3842 6134 3845 C 6338 3850 6359 3853 6360 3882 C 6360 3896 6324 3908 6309 3900 Z M 3640 3625 C 3640 3622 3642 3620 3645 3620 C 3648 3620 3650 3622 3650 3625 C 3650 3628 3648 3630 3645 3630 C 3642 3630 3640 3628 3640 3625 Z M 3529 1828 C 3528 1821 3528 1809 3529 1801 C 3531 1794 3527 1791 3522 1794 C 3517 1797 3508 1794 3503 1787 C 3490 1771 3478 1698 3490 1705 C 3494 1708 3501 1703 3504 1694 C 3508 1684 3506 1681 3498 1686 C 3491 1691 3489 1686 3492 1672 C 3496 1657 3494 1650 3484 1650 C 3476 1650 3470 1647 3469 1643 C 3469 1638 3467 1624 3464 1611 C 3462 1598 3467 1579 3475 1570 C 3489 1555 3489 1552 3475 1540 C 3450 1519 3456 1466 3485 1450 C 3514 1435 3517 1425 3495 1416 C 3476 1409 3476 1386 3495 1356 C 3507 1338 3508 1323 3499 1276 C 3494 1245 3490 1205 3492 1189 L 3495 1158 L 3520 1186 C 3534 1201 3539 1210 3532 1206 C 3522 1200 3519 1205 3522 1226 C 3525 1251 3529 1255 3553 1252 C 3568 1251 3580 1254 3580 1260 C 3580 1265 3575 1270 3569 1270 C 3563 1270 3560 1276 3563 1284 C 3566 1292 3564 1301 3557 1303 C 3548 1306 3548 1311 3558 1323 C 3573 1341 3567 1357 3538 1378 C 3528 1385 3520 1398 3520 1407 C 3520 1420 3523 1420 3535 1410 C 3548 1399 3550 1402 3550 1424 C 3550 1441 3545 1450 3534 1450 C 3524 1450 3520 1456 3524 1465 C 3527 1473 3525 1480 3519 1480 C 3513 1480 3510 1486 3513 1493 C 3515 1499 3522 1504 3528 1503 C 3533 1502 3537 1515 3536 1533 C 3534 1556 3529 1565 3517 1564 C 3506 1563 3500 1570 3500 1584 C 3500 1601 3502 1602 3510 1590 C 3524 1568 3533 1585 3535 1637 C 3537 1664 3543 1698 3549 1713 C 3564 1752 3562 1769 3545 1746 C 3537 1735 3530 1731 3530 1737 C 3530 1743 3537 1753 3545 1760 C 3568 1779 3573 1808 3556 1825 C 3538 1843 3530 1844 3529 1828 Z M 3490 1595 C 3490 1592 3488 1590 3485 1590 C 3482 1590 3480 1592 3480 1595 C 3480 1598 3482 1600 3485 1600 C 3488 1600 3490 1598 3490 1595 Z M 3510 1525 C 3510 1522 3508 1520 3505 1520 C 3502 1520 3500 1522 3500 1525 C 3500 1528 3502 1530 3505 1530 C 3508 1530 3510 1528 3510 1525 Z M 6375 1930 C 6367 1905 6385 1880 6411 1880 C 6430 1880 6436 1903 6424 1934 C 6415 1957 6383 1954 6375 1930 Z M 4145 1930 C 4185 1920 4238 1918 4243 1928 C 4246 1932 4218 1936 4181 1936 C 4133 1938 4123 1936 4145 1930 Z M 4265 1930 C 4261 1924 4272 1920 4292 1921 C 4319 1921 4322 1923 4305 1930 C 4278 1942 4272 1942 4265 1930 Z M 3701 1886 C 3690 1873 3691 1869 3704 1864 C 3726 1856 3734 1865 3723 1885 C 3714 1900 3712 1900 3701 1886 Z M 3720 1845 C 3720 1842 3722 1840 3725 1840 C 3728 1840 3730 1842 3730 1845 C 3730 1848 3728 1850 3725 1850 C 3722 1850 3720 1848 3720 1845 Z M 4355 1770 C 4352 1765 4354 1760 4359 1760 C 4365 1760 4370 1765 4370 1770 C 4370 1776 4368 1780 4366 1780 C 4363 1780 4358 1776 4355 1770 Z M 4387 1743 C 4390 1736 4393 1730 4395 1730 C 4397 1730 4400 1736 4403 1743 C 4406 1751 4402 1757 4395 1757 C 4388 1757 4384 1751 4387 1743 Z M 4430 1730 C 4430 1723 4433 1720 4437 1723 C 4440 1727 4440 1733 4437 1737 C 4433 1740 4430 1737 4430 1730 Z M 4401 1704 C 4401 1693 4404 1690 4407 1698 C 4410 1705 4409 1714 4406 1717 C 4403 1721 4400 1715 4401 1704 Z M 4460 1708 C 4460 1704 4467 1700 4475 1700 C 4483 1700 4490 1704 4490 1708 C 4490 1713 4483 1717 4475 1717 C 4467 1717 4460 1713 4460 1708 Z M 4370 1686 C 4370 1688 4355 1672 4360 1675 C 4366 1678 4370 1683 4370 1686 Z M 4515 1690 C 4512 1690 4512 1680 4515 1680 C 4518 1680 4520 1682 4520 1685 C 4520 1688 4518 1690 4515 1690 Z M 4848 1666 C 4859 1678 4827 1664 4830 1660 C 4833 1656 4841 1658 4848 1666 Z M 5030 1675 C 5030 1672 5032 1670 5035 1670 C 5038 1670 5040 1672 5040 1675 C 5040 1678 5038 1680 5035 1680 C 5032 1680 5030 1678 5030 1675 Z M 5190 1670 C 5178 1662 5180 1660 5198 1660 C 5211 1660 5218 1664 5215 1670 C 5208 1682 5209 1682 5190 1670 Z M 5190 1595 C 5190 1592 5192 1590 5195 1590 C 5198 1590 5200 1592 5200 1595 C 5200 1598 5198 1600 5195 1600 C 5192 1600 5190 1598 5190 1595 Z M 0 990 C 0 974 4 960 9 960 C 21 960 33 997 25 1010 C 13 1030 0 1020 0 990 Z M 3530 610 C 3518 603 3520 594 3540 553 C 3567 498 3577 508 3558 574 C 3548 609 3541 617 3530 610 Z M 8907 543 C 8878 515 8933 466 8968 489 C 8992 504 8972 550 8941 550 C 8926 550 8910 547 8907 543 Z" style=""/>
  </g>
</svg>